<svg xmlns="http://www.w3.org/2000/svg" xmlns:xlink="http://www.w3.org/1999/xlink" viewBox="0 0 100 100"><defs><path id="a" d="M.325.46H20.84V42.6H.325z"/><path id="c" d="M0 .16h19.74v46.323H0z"/></defs><g fill="none" fill-rule="evenodd"><path fill="#F9CE62" fill-rule="nonzero" d="m68.101 59.552-.738 1.829.018.002a.431.431 0 0 1-.555.201l-1.183-.421a.418.418 0 0 1-.286-.45.403.403 0 0 1 .015-.077l.57-1.891 2.16.807zm-28.286-8.739c.006.024.006.054.006.078a.428.428 0 0 1-.33.414l-1.23.276.012-.018a.427.427 0 0 1-.54-.288l-.522-1.902 2.238-.552.366 1.992z"/><path fill="#FDF0D0" fill-rule="nonzero" d="M66.559 32.799a.377.377 0 0 1-.022.082l-4.976 14.957a.377.377 0 0 1-.181.208.347.347 0 0 1-.204.038c-.024-.003-.048-.006-.071-.015l-2.11-.705a.366.366 0 0 1-.23-.461l4.976-14.958a.366.366 0 0 1 .181-.214.396.396 0 0 1 .28-.016v.006l2.11.698a.39.39 0 0 1 .21.182.383.383 0 0 1 .037.198m-17.7 5.159a.373.373 0 0 1-.282.432l-2.196.444a.397.397 0 0 1-.276-.048.377.377 0 0 1-.156-.228l-3.216-15.396-.006-.018a.38.38 0 0 1 .048-.27.382.382 0 0 1 .234-.162l2.178-.474h.078c.168 0 .318.12.348.294l3.246 15.426z"/><path fill="#E8A51F" fill-rule="nonzero" d="m39.53 47.842-2.43.6-2.455-8.621c.258.21.522.402.798.588a10.368 10.368 0 0 0 2.965 1.32l1.121 6.113zm29.751 9.823-2.345-.87 1.806-5.976-.018-.002a10.334 10.334 0 0 0 3.091-.97c.296-.153.587-.318.86-.486l-3.394 8.304z"/><path fill="#F9CE62" fill-rule="nonzero" d="M39.406 26.27a.954.954 0 0 0 .738-1.128.948.948 0 0 0-1.122-.733 5.505 5.505 0 0 0-4.098 3.66.943.943 0 0 0 .6 1.237.95.95 0 0 0 .732-.067.98.98 0 0 0 .468-.57 3.608 3.608 0 0 1 2.682-2.4zm4.734 12.587c.012.073.066.139.066.204-.468.18-.948.319-1.44.409a8.405 8.405 0 0 1-9.66-5.478l-.306-1.038a8.416 8.416 0 0 1 6.528-9.936 8.534 8.534 0 0 1 1.56-.15 2.49 2.49 0 0 0 .036.52l3.216 15.469zm29.068.873a.948.948 0 0 0 .219-.844 5.524 5.524 0 0 0-3.648-4.115.95.95 0 0 0-1.201.622.954.954 0 0 0 .621 1.201 3.613 3.613 0 0 1 2.387 2.694c.088.39.421.689.821.73l-.02.021c.31.036.613-.08.82-.309m-3.549-6.41c4.395 1.477 6.773 6.223 5.325 10.622l-.42 1.014a8.333 8.333 0 0 1-3.795 3.865 8.353 8.353 0 0 1-6.42.462 8.38 8.38 0 0 1-1.385-.614c.026-.07.075-.13.084-.201l4.976-14.958c.056-.168.089-.346.103-.52.519.06 1.032.168 1.532.33"/><g transform="translate(55.8 28.44)"><mask id="b" fill="#fff"><use xlink:href="#a"/></mask><path fill="#000" d="m18.794 14.507-.004.01-.42 1.014a8.545 8.545 0 0 1-3.867 3.943 8.553 8.553 0 0 1-6.535.47 8.396 8.396 0 0 1-1.41-.625l-.114-.063.047-.122a.69.69 0 0 1 .043-.091c.015-.029.03-.058.032-.074L11.55 3.98c.049-.15.081-.312.095-.484l.013-.155.154.018c.535.062 1.06.174 1.56.335 4.46 1.499 6.891 6.35 5.423 10.812zm-5.967 14.546-2.614-.97 1.796-5.94.155-.277a10.192 10.192 0 0 0 3.045-.956c.28-.144.566-.306.849-.48l.39-.24-3.621 8.863zm-1.33 3.243-.097.19a.585.585 0 0 1-.748.27l-1.175-.417a.569.569 0 0 1-.384-.61c.004-.031.009-.072.023-.11l.613-2.036 2.454.917-.723 1.792.036.004zM5.048 18.43a.525.525 0 0 1-.482.351c-.02 0-.041-.002-.062-.004a.429.429 0 0 1-.108-.023l-2.105-.702a.517.517 0 0 1-.326-.648L6.944 2.443a.516.516 0 0 1 .253-.299.533.533 0 0 1 .396-.026l.122.038-.001.008 1.991.658c.132.05.232.136.294.253a.523.523 0 0 1 .054.286.49.49 0 0 1-.029.114L5.049 18.43zm14.05-12.342a10.178 10.178 0 0 0-7.853-4.431.653.653 0 0 0-.242.028l-.075.02-.06-.051a1.985 1.985 0 0 0-.67-.375l-.121-.04.001-.006-1.99-.665A2.116 2.116 0 0 0 5.411 1.91L.434 16.867a2.119 2.119 0 0 0 1.336 2.677l2.117.7c.37.126.765.145 1.143.053l.063-.015.054.035c.724.468 1.498.843 2.3 1.113.658.223 1.351.377 2.06.46l.85.098-2.78 9.212a2.179 2.179 0 0 0 1.07 2.555l.122.064-3.09 7.49h.003l-.061.186a.783.783 0 0 0 .44 1.039.609.609 0 0 0 .211.061.81.81 0 0 0 .836-.489l3.17-7.725.34.04a2.182 2.182 0 0 0 2.262-1.336l6.975-16.919c.17-.343.32-.703.45-1.08l-.001-.022c1.022-3.018.57-6.36-1.204-8.975z" mask="url(#b)"/></g><g transform="translate(30 19.44)"><mask id="d" fill="#fff"><use xlink:href="#c"/></mask><path fill="#000" d="M17.774 18.203h-.002l-2.196.444a.542.542 0 0 1-.385-.066.53.53 0 0 1-.224-.327L11.75 2.859a.539.539 0 0 1 .06-.397.539.539 0 0 1 .327-.228l2.182-.476.11-.003c.246 0 .454.176.496.418l3.245 15.42a.529.529 0 0 1-.397.61zm-4.316.755-.096.037a8.258 8.258 0 0 1-1.467.415 8.487 8.487 0 0 1-1.741.18c-3.578 0-6.881-2.263-8.088-5.756l-.308-1.045C.805 8.163 3.786 3.627 8.4 2.664a8.702 8.702 0 0 1 1.59-.153h.156l-.005.155c-.006.165.006.334.034.49L13.39 18.62c.003.02.013.042.023.064.02.045.046.102.046.17v.104zM9.382 30.96c.008.032.008.074.008.105a.578.578 0 0 1-.444.56l-1.534.262a.578.578 0 0 1-.405-.398l-.563-2.051 2.542-.627.396 2.149zm-3.349-3.05L3.41 18.69l.37.3c.24.195.496.385.787.58a10.16 10.16 0 0 0 2.92 1.3l.09.024 1.165 6.347-2.708.668zM19.74 17.708c0-.164-.015-.306-.044-.435v-.003L16.472 1.845A2.122 2.122 0 0 0 13.967.204l-2.13.45a2.033 2.033 0 0 0-.702.294l-.065.045-.075-.029a.747.747 0 0 0-.235-.055 10.177 10.177 0 0 0-8.313 3.506 10.167 10.167 0 0 0-2.222 8.738l.003.091c.076.33.181.706.31 1.087L5.49 31.889a2.184 2.184 0 0 0 2.1 1.587h.335l.031.11 3.486 12.317a.809.809 0 0 0 .984.551.8.8 0 0 0 .534-.99L9.49 33.17l.128-.05a2.167 2.167 0 0 0 1.359-2.412l-1.694-9.466h.857a10.113 10.113 0 0 0 4.474-1.087l.059-.03.061.023c.355.134.714.167 1.15.084l2.175-.457a2.117 2.117 0 0 0 1.68-2.066z" mask="url(#d)"/></g><path stroke="#000" stroke-width="1.6" d="M65.354 61.62c-1.91 5.192-3.468 9.303-4.676 12.332-.968 2.428-.428 4.935 2.285 6.084 1.903.806 5.193 1.128 6.631-1.417 1.438-2.545 1.012-6.713 2.654-8.216 1.643-1.503 4.05-1.617 7.66-.827m-41.392-17.56c2.31 7.684 3.711 12.843 4.204 15.475.738 3.95-4.496 5.958-6.973 4.762-2.476-1.196-1.317-5.121-4.166-8.066-1.9-1.962-4.948-1.962-9.144 0"/></g></svg>