<svg viewBox="0 0 172 172" role="img" aria-labelledby="volume-setup-icon" alt=""><title id="volume-setup-icon">volume-setup-icon</title><defs><path id="mobile-device_svg__a" d="M.443.612h32.821v35.632H.443z"></path><path id="mobile-device_svg__c" d="M0 92.988h78.065V.8H0z"></path></defs><g fill="none" fill-rule="evenodd"><circle class="circle-device" cx="86" cy="86" r="86" fill="#f3f7fd"></circle><g transform="translate(47 39)"><path fill="#E1F4FF" d="M61.448 37.97v33.736l-8.072-7.287a1.251 1.251 0 00-1.768.087l-6.6-5.976H45a23.67 23.67 0 003.544-16.632 23.683 23.683 0 00-11.4-16.744h12.768c.016.04.032.088.048.129l-3.112 3.871a1.04 1.04 0 00.072 1.456l4.208 4.248c.408.416 1.048.448 1.456.072l3.792-3.111c.224.111.408.183.64.264l.48 4.871c.08.568.528 1.016 1.096 1.016h2.856z"></path><path fill="#2BB673" d="M37.847 77.952c.656 0 1.304.655 1.304 1.304 0 .655-.656 1.312-1.304 1.312-.656 0-1.312-.657-1.312-1.312 0-.656.656-1.304 1.312-1.304"></path><path fill="#D2EDF9" d="M58.255 82.083l-7.056-6.368H17.367v5.56c0 2.784 2.128 5.072 4.912 5.072h34.68c1.608 0 2.992-.76 3.872-1.936l-2.576-2.328z"></path><path fill="#E1F4FF" d="M48.057 72.592H17.113v-5.017a23.424 23.424 0 007.48 1.44c5.64.16 11.16-1.695 15.552-5.255l6.616 5.968a1.252 1.252 0 00.088 1.768l1.208 1.096z"></path><path fill="#D2EDF9" d="M31.663 17.616c0-.817-.656-1.305-1.304-1.305-.824 0-1.312.488-1.312 1.305 0 .664.488 1.312 1.312 1.312.656 0 1.304-.657 1.304-1.312m2.296.008c0 .656.488 1.143 1.304 1.143h8.384v3.593H31.15a23.604 23.604 0 00-7.432-.808c-1.712.087-3.4.36-5.024.808h-1.92v-3.92c0-2.784 2.128-4.912 4.912-4.912H48.95l.84 1.024a4.345 4.345 0 00-.256.647l-4.88.481c-.4.055-.736.295-.896.631h-8.496c-.816 0-1.304.496-1.304 1.313"></path><path fill="#F9CE62" d="M75.695 20.615h.184l-.216.024-.008-3.087h.032z"></path><path fill="#FFF" d="M75.655 17.552l-3.608-.36c-.456-.032-.792-.336-.936-.745a2.11 2.11 0 00-.064-.215c.016.007.024.007.04.007l4.568.449v.864z"></path><path fill="#000" d="M75.719 86.056L63.423 74.96v-1.768l12.216 11.032a4.953 4.953 0 011.704 3.472 4.925 4.925 0 01-1.28 3.64 4.989 4.989 0 01-3.504 1.647 5.05 5.05 0 01-3.624-1.336l-7.464-6.743a8.238 8.238 0 001.32-2.152l7.968 7.2a2.58 2.58 0 002.808.384 2.546 2.546 0 002.336-.753c.92-1.023.84-2.6-.184-3.527"></path><path fill="#000" d="M74.35 89.775a2.549 2.549 0 00-.183-3.592l-10.744-9.695V74.96l12.296 11.097a2.501 2.501 0 01.184 3.527 2.546 2.546 0 01-2.336.752c.288-.128.552-.32.784-.56"></path><path fill="#FFBC50" d="M73.967 86.08a2.493 2.493 0 01.176 3.527c-.272.29-.6.496-.952.632a2.372 2.372 0 01-.824-.472l-9.168-8.279a8.285 8.285 0 00.224-1.905v-3.016l10.544 9.512z"></path><path fill="#000" d="M73.967 86.08l-10.544-9.513v-.079l10.744 9.695a2.55 2.55 0 01.184 3.592c-.232.24-.496.432-.784.56a1.444 1.444 0 01-.376-.096c.352-.136.68-.343.952-.632a2.494 2.494 0 00-.176-3.528"></path><path fill="#FFF" d="M70.615 89.792l-7.816-7.064c.168-.4.304-.808.4-1.24l9.168 8.28c.248.215.528.375.824.472a2.536 2.536 0 01-2.576-.448"></path><path fill="#000" d="M72.503 9.064l.008.016-.016-.016z"></path><path fill="#000" d="M72.51 9.08l-2.927 3.567c-.04.05-.072.105-.104.152.032-.07.08-.143.128-.207l2.888-3.529.016.016z"></path><path fill="#F9CE62" d="M70.695 7.256l1.8 1.808-1.808-1.808z"></path><path fill="#000" d="M75.855 20.672l-4.576.448a1.083 1.083 0 00-.808.464c.168-.288.472-.496.84-.52l4.352-.424v.032h.192zm-5.096 69.28l-7.968-7.2c.008-.009.008-.017.008-.024l7.816 7.064c.728.632 1.72.776 2.576.447.12.049.248.081.376.096a2.577 2.577 0 01-2.808-.383"></path><path fill="#000" d="M69.807 24.664c-.264-.336-.296-.824-.112-1.2.12-.264.232-.512.336-.768.064-.152.128-.304.184-.464.056-.136.104-.272.152-.417.016-.047.032-.095.056-.143a.316.316 0 01.048-.089c.176-.255.472-.44.808-.463l4.576-.448h-.192v-.032l.216-.025h-.184l-.008-3.063.928.095.008 3.977h.192l-4.576.448c-.448.04-.824.343-.944.752a15.093 15.093 0 01-.664 1.648c-.192.375-.16.872.104 1.2l2.056 2.504-.056.048-2.928-3.56z"></path><path fill="#F9CE62" d="M70.335 21.864c.024-.064.048-.136.088-.192-.024.048-.04.096-.056.143-.048.145-.096.28-.152.417.04-.12.08-.24.12-.368"></path><path fill="#000" d="M69.583 12.647L72.51 9.08l.96.952-2.928 3.568c-.264.33-.344.825-.112 1.193a8.1 8.1 0 01.592 1.375c-.408-.056-.704-.352-.848-.728-.152-.568-.376-1.087-.672-1.656-.184-.304-.168-.68-.024-.984.032-.047.064-.103.104-.152"></path><path fill="#F9CE62" d="M69.695 23.464c-.184.376-.152.864.112 1.2l2.928 3.56-.04.04-2.92-3.544c-.264-.337-.296-.824-.112-1.2.136-.28.256-.552.368-.824-.104.256-.216.504-.336.768m-.192-9.681c.296.57.52 1.088.672 1.656.144.376.44.672.848.728a.51.51 0 01.024.065c-.432-.04-.76-.344-.896-.736-.152-.568-.384-1.089-.68-1.657-.2-.319-.168-.719.008-1.039-.144.303-.16.68.024.983"></path><path fill="#231F20" d="M67.11 21.208a2.686 2.686 0 01-.175.424c.064-.136.12-.28.176-.424m.448-2.52c0-1.76-.624-3.384-1.664-4.656.064.047.128.104.192.168a7.262 7.262 0 011.04 6.975c.28-.775.432-1.615.432-2.487"></path><path fill="#FFF" d="M68.519 19.64c0 3.248-2.136 6.024-5.096 6.968v-1.336a7.354 7.354 0 003.368-3.336c.056-.096.104-.2.144-.304.072-.136.128-.28.176-.424.016-.008.016-.016.016-.032a7.074 7.074 0 00.464-2.544c0-1.664-.56-3.2-1.504-4.432a7.271 7.271 0 012.432 5.44"></path><path fill="#231F20" d="M63.423 23.383a5.69 5.69 0 002.088-6.744 5.055 5.055 0 011.336 3.432 5.09 5.09 0 01-3.424 4.808v-1.496z"></path><path fill="#231F20" d="M61.79 12.343c1.545.12 2.953.72 4.073 1.656.008.008.024.016.032.032a7.34 7.34 0 011.664 4.657 7.32 7.32 0 01-.432 2.487c0 .017 0 .024-.016.032a6.483 6.483 0 01-.176.424c-.04.104-.088.208-.144.304a7.342 7.342 0 01-3.368 3.29v-.346a5.09 5.09 0 003.424-4.808 5.055 5.055 0 00-1.336-3.432 5.722 5.722 0 00-3.024-3.192 7.28 7.28 0 00-.696-1.104"></path><path fill="#FDF0D0" d="M64.503 15.783a5.06 5.06 0 01.872 2.85c0 1.623-.768 3.07-1.952 4.006v-5.383c0-.72-.096-1.424-.264-2.089.48.13.936.344 1.344.616"></path><path fill="#F9CE62" d="M63.423 28.688v-2.08c2.96-.944 5.096-3.72 5.096-6.969 0-2.16-.936-4.103-2.432-5.439a7.275 7.275 0 00-3.64-2.56 6.617 6.617 0 00-1.552-.304 8.2 8.2 0 00-2.808-1.784c.336-.169.576-.473.6-.864l.448-4.584h3.088l.352 3.632c.032.447.328.816.744.928.08.024.152.056.224.088.056.416.336.768.736.863.56.192 1.088.417 1.648.681.384.192.864.143 1.208-.12l3.552-2.92 1.808 1.808-2.888 3.528a1.12 1.12 0 00-.128.208c-.176.32-.208.72-.008 1.04.296.567.528 1.088.68 1.656.136.392.464.696.896.736.024.072.048.143.064.215.144.409.48.713.936.745l3.608.36.008 3.087-4.352.425a1.048 1.048 0 00-.84.52.308.308 0 00-.048.087c-.04.057-.064.129-.088.193-.04.128-.08.247-.12.368-.056.16-.12.311-.184.464a14.88 14.88 0 01-.368.824c-.184.376-.152.863.112 1.2l2.92 3.544-2.736 2.743-3.568-2.928c-.336-.264-.824-.336-1.2-.119a7.23 7.23 0 01-1.648.68l-.12.048"></path><path fill="#FFF" d="M65.927 10.296a16.163 16.163 0 00-1.648-.681c-.4-.095-.68-.447-.736-.863.48.168.944.36 1.424.592a1.16 1.16 0 001.2-.12l3.568-2.92.952.952-3.552 2.92a1.159 1.159 0 01-1.208.12"></path><path fill="#000" d="M63.543 28.64a7.186 7.186 0 001.648-.68c.376-.216.864-.144 1.2.12l3.568 2.928 2.736-2.744.008.016-2.776 2.784-3.56-2.928c-.344-.264-.832-.336-1.208-.12a7.186 7.186 0 01-1.648.68.296.296 0 00-.088.04v-.048l.12-.048"></path><path fill="#231F20" d="M63.423 22.64a5.106 5.106 0 001.952-4.008c0-1.056-.32-2.032-.872-2.848.376.232.712.52 1.008.856.248.64.384 1.328.384 2.048a5.695 5.695 0 01-2.472 4.696v-.744z"></path><path fill="#000" d="M63.423 33.615v-4.88a.294.294 0 01.088-.039 7.23 7.23 0 001.648-.68c.376-.217.864-.145 1.208.12l3.56 2.928 2.776-2.785-.008-.015.04-.04.056-.049.872 1.057-2.776 2.783-3.56-2.927c-.336-.256-.832-.336-1.208-.113-.56.304-1.08.521-1.64.672-.416.16-.72.488-.76.936l-.296 3.032zm-.336-29.511l.448 4.576c-.064-.032-.12-.048-.184-.072a1.038 1.038 0 01-.752-.928l-.352-3.576h.84z"></path><path fill="#FFBC50" d="M63.423 76.568v3.016a8.27 8.27 0 01-.224 1.904l-3.104-2.808v-4.656l.232-.256 3.096 2.8z"></path><path fill="#000" d="M63.423 76.488v.08l-3.096-2.8-2.616-2.361h.088z"></path><path fill="#000" d="M63.423 74.96v1.528l-5.624-5.08h1.688zM63.423 73.192v1.768l-3.936-3.552h.608v-1.225z"></path><path fill="#000" d="M63.423 36.432v36.76l-3.328-3.01V36.449h3.112c.072 0 .144-.008.216-.016m0-7.745v.048c-.208.096-.384.24-.512.424.112-.2.296-.368.512-.472"></path><path fill="#F9CE62" d="M63.423 26.608v2.08c-.216.104-.4.272-.512.472a1.568 1.568 0 00-.048.112.935.935 0 00-.104.36l-.44 4.528h-2.224v-7.296a7.218 7.218 0 003.328-.256"></path><path fill="#231F20" d="M63.423 23.383v1.496a4.865 4.865 0 01-1.672.288 4.954 4.954 0 01-1.656-.279v-.496c.032.008.056.008.088.008 1.2 0 2.32-.376 3.24-1.017"></path><path fill="#FFF" d="M62.839 14.215c.664.392 1.24.928 1.664 1.568a4.584 4.584 0 00-1.344-.616 7.883 7.883 0 00-.32-.952"></path><path fill="#231F20" d="M65.863 14a7.205 7.205 0 00-4.072-1.656 7.24 7.24 0 00-.832-.944 7.242 7.242 0 014.904 2.6"></path><path fill="#000" d="M62.799 82.728c0 .008 0 .016-.008.024l-2.744-2.48c.008-.008.008-.016 0-.025l2.752 2.48zm-2.752-2.456l2.744 2.48a8.238 8.238 0 01-1.32 2.152l-2.416-2.184a5.07 5.07 0 00.992-2.448"></path><path fill="#F9CE62" d="M62.863 29.272a.94.94 0 00-.072.304l-.096.952-.36 3.632h-.016l.44-4.528a.935.935 0 01.104-.36"></path><path fill="#000" d="M62.695 36.447h-2.6v-1.28h3.176l.152-1.552v2.816c-.072.008-.144.016-.216.016h-.512z"></path><path fill="#231F20" d="M62.839 14.215a8.61 8.61 0 00-.352-.768 5.725 5.725 0 013.024 3.192 4.472 4.472 0 00-1.008-.856c-.424-.64-1-1.176-1.664-1.568"></path><path fill="#F9CE62" d="M62.599 7.68c.04.448.336.816.752.927.064.024.12.04.184.072v.01c0 .022 0 .04.008.063-.072-.032-.144-.064-.224-.089a1.018 1.018 0 01-.744-.928l-.352-3.632h.024l.352 3.576z"></path><path fill="#000" d="M63.27 35.168h-3.175v-.952h2.216l.008-.056h.016l.36-3.632.096-.952a.94.94 0 01.072-.304c.016-.04.032-.08.048-.112.128-.184.304-.328.512-.424v4.88l-.152 1.552z"></path><path fill="#000" d="M60.095 34.16h2.224l-.008.055h-2.216zm-1.04 48.56l2.416 2.183a8.222 8.222 0 01-6.288 2.921h-34.68c-4.544 0-8.232-3.696-8.232-8.24V64.878a23.096 23.096 0 003.32 1.513v5.015h30.944l2.064 1.872.824.745H15.59v5.56c0 2.784 2.128 5.072 4.912 5.072h34.68c1.608 0 2.992-.76 3.872-1.936"></path><path fill="#231F20" d="M60.959 11.4c-.016-.032-.04-.048-.064-.064.536.04 1.056.144 1.552.304a7.281 7.281 0 013.64 2.56 1.802 1.802 0 00-.192-.168c-.008-.016-.024-.024-.032-.032a7.242 7.242 0 00-4.904-2.6"></path><path fill="#FFF" d="M61.207 26.952c-.376 0-.752-.032-1.112-.088V26h.152a7.29 7.29 0 003.176-.729v1.336a7.188 7.188 0 01-2.216.345"></path><path fill="#FDF0D0" d="M60.095 23.72v-.088h-.76a4.892 4.892 0 01-1.84-.736 4.846 4.846 0 01-.728-1.72h3.328v-3.92c0-.673-.128-1.304-.352-1.88a4.94 4.94 0 012.008-.416c.488 0 .96.072 1.408.208.168.664.264 1.368.264 2.088v5.383a4.773 4.773 0 01-.728.481 5.14 5.14 0 01-2.416.608c-.064 0-.12-.008-.184-.008"></path><path fill="#FFF" d="M60.095 79.583v-.904l3.104 2.81c-.096.431-.232.84-.4 1.24l-2.752-2.482c.032-.215.048-.44.048-.664"></path><path fill="#FFBC50" d="M60.327 73.768l-.232.256h-5.152l-2.896-2.616h5.664z"></path><path fill="#231F20" d="M60.279 25.943c-.064 0-.12-.008-.184-.016v-1.039c.52.183 1.072.28 1.656.28.584 0 1.144-.097 1.672-.289v.345a7.307 7.307 0 01-3.144.719m.928-13.623c-1.2 0-2.328.287-3.328.8a4.733 4.733 0 00-1.52-.64 7.224 7.224 0 014.6-1.08c.304.288.576.6.832.943a7.443 7.443 0 00-.584-.023"></path><path fill="#000" d="M60.247 26h-.152v-.072c.064.008.12.016.184.016.848 0 1.656-.152 2.416-.416.248-.088.488-.192.728-.304v.048a7.29 7.29 0 01-3.176.728"></path><path fill="#231F20" d="M60.095 23.72c.064 0 .12.008.184.008a5.14 5.14 0 002.416-.608c.256-.137.496-.296.728-.48v.743a5.656 5.656 0 01-3.24 1.017c-.032 0-.056 0-.088-.008v-.672zm-2.216-10.6a7.259 7.259 0 013.912-.777c.264.345.496.713.696 1.104a5.677 5.677 0 00-4.312-.119 2.36 2.36 0 00-.296-.208"></path><path fill="#FFF" d="M60.095 78.68v.903c0 .224-.016.448-.048.664l-6.888-6.223h1.784l5.152 4.655z"></path><path fill="#FFBC50" d="M60.095 74.024v4.655l-5.152-4.655z"></path><path fill="#000" d="M60.095 34.215v.952h-.88l-.096-.952z"></path><path fill="#FFF" d="M60.095 26v.864a7.259 7.259 0 01-4.496-2.536A7.27 7.27 0 0060.095 26"></path><path fill="#FDF0D0" d="M60.095 23.632v.088h-.056a4.132 4.132 0 01-.704-.088h.76zm0-6.376v3.92h-3.328a4.588 4.588 0 01-.128-1.104 5.11 5.11 0 013.104-4.697c.224.577.352 1.208.352 1.88"></path><path fill="#000" d="M59.119 34.16H60.095v.055h-.976zm.928 46.087c.008.01.008.017 0 .024l-6.92-6.247h.032l6.888 6.223z"></path><path fill="#000" d="M53.127 74.024l6.92 6.248a5.074 5.074 0 01-.992 2.448l-2.576-2.328-7.056-6.368h3.704z"></path><path fill="#231F20" d="M58.695 13.775a3.123 3.123 0 00-.52-.448 5.661 5.661 0 014.312.12c.128.248.248.505.352.768-.048-.023-.096-.056-.144-.08a5.04 5.04 0 00-2.416-.615c-.08 0-.16.007-.24.015-.464.017-.92.104-1.344.24m1.4 10.617c-.448 0-.88-.056-1.296-.168a4.124 4.124 0 01-.704-.592h1.24c.232.047.464.079.704.088h.056v.672z"></path><path fill="#FFF" d="M61.75 14.96c-.711 0-1.391.144-2.007.416a4.71 4.71 0 00-1.048-1.6c.424-.136.88-.224 1.344-.24.08-.008.16-.016.24-.016a5.03 5.03 0 012.416.616c.048.024.096.056.144.079.128.313.232.625.32.953a4.836 4.836 0 00-1.408-.208"></path><path fill="#000" d="M59.487 71.408h-1.688l-5.536-4.992.76-.84z"></path><path fill="#231F20" d="M59.335 23.632h-1.24a4.822 4.822 0 01-.6-.736c.544.36 1.168.616 1.84.736"></path><path fill="#FFF" d="M58.767 30.592l.352 3.568h-.832l-.456-4.577c.064.025.12.04.184.064.416.113.72.496.752.945"></path><path fill="#231F20" d="M58.799 24.224c.416.112.848.168 1.296.168v.496a4.542 4.542 0 01-1.296-.664"></path><path fill="#FFF" d="M57.759 7.68l.064-.68.376-3.848h3.928l.096.951h-3.088l-.448 4.585c-.024.391-.264.695-.6.864a7.964 7.964 0 00-2.184-.496 7.12 7.12 0 011.08-.393c.272-.096.496-.27.616-.51.024-.033.048-.065.056-.106a.934.934 0 00.104-.368"></path><path fill="#231F20" d="M58.799 24.224a5.164 5.164 0 01-1.472-.592h.768c.216.224.448.424.704.592"></path><path fill="#000" d="M57.807 29.64c0-.024-.008-.04-.008-.064.008 0 .024.008.032.008l.456 4.576h.832v.056h-.864l-.448-4.576zM57.823 7l-.064.68a.934.934 0 01-.104.368c.04-.096.064-.2.072-.312l.448-4.584h.024L57.823 7zm-.024 64.408h-.088l-5.488-4.944.04-.048z"></path><path fill="#FFBC50" d="M57.711 71.408h-5.664l-2.36-2.136 2.536-2.808z"></path><path fill="#FFF" d="M57.495 22.896a4.942 4.942 0 01-1.632-1.72h.904c.128.624.384 1.207.728 1.72"></path><path fill="#231F20" d="M55.39 24.056a2.62 2.62 0 01-.295-.424h2.232c.448.264.944.472 1.472.592.392.287.824.512 1.296.664v1.04h-.056a7.241 7.241 0 01-4.648-1.872m4.856-12.696a7.232 7.232 0 00-3.888 1.119c-.008-.007-.016-.007-.032-.007.92-.6 1.984-.993 3.136-1.12.264-.024.536-.048.816-.048.208 0 .416.007.616.032a.164.164 0 01.064.064 5.238 5.238 0 00-.712-.04"></path><path fill="#FFF" d="M55.335 17.36a5.195 5.195 0 011.664-2.649 5.046 5.046 0 011.696-.935 4.71 4.71 0 011.048 1.6 5.108 5.108 0 00-3.104 4.696c0 .375.04.752.128 1.104h-.904a4.913 4.913 0 01-.696-2.544c0-.44.064-.864.168-1.272"></path><path fill="#231F20" d="M56.327 12.472c.016 0 .024 0 .032.008a7.595 7.595 0 00-1.76 1.552 7.146 7.146 0 011.728-1.56m1 11.16a5.722 5.722 0 01-2.296-2.456h.832c.392.696.96 1.288 1.632 1.72.176.264.376.512.6.736h-.768zm-1.937.424a6.008 6.008 0 01-.44-.424h.145c.08.151.184.288.296.424m-.936-5.368a5.725 5.725 0 013.72-5.36c.192.128.36.28.52.447-.624.2-1.2.521-1.696.936a5.195 5.195 0 00-1.832 3.921c0 .928.248 1.8.696 2.543h-.832a5.628 5.628 0 01-.576-2.487"></path><path fill="#231F20" d="M55.095 23.632a6.892 6.892 0 01-1.032-2.456h.968a5.722 5.722 0 002.296 2.456h-2.232z"></path><path fill="#000" d="M55.359 9.288c-.376.223-.864.144-1.2-.12l-.176-.144h1.2c.216 0 .432.008.64.023-.152.081-.304.153-.464.241"></path><path fill="#F9CE62" d="M54.95 23.632c.145.15.289.296.44.424.065.088.129.176.2.264a6.703 6.703 0 01-.72-.688h.08z"></path><path fill="#FFF" d="M52.047 71.408l2.896 2.616h-1.784l-2.896-2.616z"></path><path fill="#000" d="M54.207 28.136a1.162 1.162 0 011.2-.12c.568.264 1.088.496 1.648.68.4.104.68.464.744.88-.48-.176-.936-.376-1.432-.6a1.162 1.162 0 00-1.2.112l-3.56 2.928-.96-.952 3.56-2.928z"></path><path fill="#231F20" d="M54.95 23.632a7.314 7.314 0 01-1.527-2.456h.64c.184.888.536 1.72 1.032 2.456h-.144zm-1.055-3.992a7.333 7.333 0 013.984-6.52c.104.064.2.128.296.208a5.725 5.725 0 00-3.72 5.36c0 .896.208 1.736.576 2.488h-.968a6.952 6.952 0 01-.168-1.536"></path><path fill="#F9CE62" d="M54.87 23.632a7.331 7.331 0 01-1.503-2.456h.056a7.3 7.3 0 001.528 2.456h-.08z"></path><path fill="#231F20" d="M54.103 14.711a.97.97 0 01.08-.112c-.064.096-.128.184-.184.28.032-.055.072-.112.104-.168"></path><path fill="#000" d="M54.127 9.224l-.24-.2h.096l.176.144c.336.264.824.343 1.2.12.16-.088.312-.16.464-.24.024 0 .056.008.08.008-.184.087-.376.184-.576.287-.376.225-.856.145-1.2-.12"></path><path fill="#FFF" d="M55.095 10.175l-1.408-1.15h.2l.24.2c.344.263.824.342 1.2.118.2-.104.392-.2.576-.287.76.064 1.496.232 2.184.496a.857.857 0 01-.144.063c-.568.152-1.088.377-1.656.68-.376.225-.856.144-1.192-.12"></path><path fill="#231F20" d="M57.879 13.12a7.331 7.331 0 00-3.984 6.52c0 .528.056 1.04.168 1.535h-.64a7.24 7.24 0 01-.456-2.543 7.437 7.437 0 01.496-2.657c.152-.383.328-.743.536-1.096.056-.096.12-.183.184-.279.064-.097.128-.193.2-.289.064-.096.136-.191.216-.279a7.6 7.6 0 011.76-1.553 4.757 4.757 0 011.52.641"></path><path fill="#F9CE62" d="M53.687 9.024h-3.928l1.768-1.768zm-3.513 8.168c.456-.032.824-.336.936-.745.184-.568.416-1.087.68-1.655a1.164 1.164 0 00-.112-1.192l-1.032-1.257h4.536c.4 0 .784.04 1.144.129a7.146 7.146 0 00-1.728 1.56c-.08.088-.152.183-.216.279-.072.097-.144.193-.2.289-.032.04-.056.072-.08.111-.032.057-.072.113-.104.168a7.827 7.827 0 00-.536 1.096 7.315 7.315 0 00-.096 5.2h-3.664a.962.962 0 00-.376-.111l-3.728-.36v-3.057l.64-.064h1.584c.272 0 .544-.087.768-.231l1.584-.16z"></path><path fill="#000" d="M50.263 71.408l2.896 2.616h-.032l-2.896-2.616z"></path><path fill="#000" d="M50.231 71.408l2.896 2.616h-3.704l-.824-.744-2.064-1.872z"></path><path fill="#F9CE62" d="M52.935 18.688c0-.96.184-1.873.528-2.713a7.437 7.437 0 00-.496 2.657c0 .896.16 1.751.456 2.543h-.056a7.315 7.315 0 01-.432-2.487"></path><path fill="#FFF" d="M50.263 71.408l-2.336-2.112 3.336-3.704.96.872-2.536 2.808 2.36 2.136z"></path><path fill="#F9CE62" d="M51.463 23.632h3.408a6.52 6.52 0 00.728.696 7.259 7.259 0 004.496 2.536v7.296h-.976l-.352-3.568c-.032-.448-.336-.832-.752-.944-.064-.024-.12-.04-.184-.065-.032-.447-.328-.831-.744-.943a15.063 15.063 0 01-1.656-.68 1.148 1.148 0 00-1.192.12l-3.568 2.928-1.8-1.8 2.888-3.528c.264-.336.328-.832.112-1.208-.152-.29-.288-.56-.408-.84"></path><path fill="#FFF" d="M50.799 24.728a.948.948 0 00.128-.217.276.276 0 00.048-.111c.104-.248.128-.521.032-.768h.456c.12.279.256.551.408.84.216.375.152.872-.112 1.207l-2.888 3.529-.96-.961 2.888-3.52zm.664-1.096h-.456a.76.76 0 00-.072-.168c-.248-.472-.456-.912-.6-1.376a1.1 1.1 0 01.856.744c.072.272.168.536.272.8"></path><path fill="#000" d="M51.007 23.632c.096.248.072.52-.032.768a1.059 1.059 0 00-.016-.768h.048z"></path><path fill="#FFF" d="M47.847 9.024l2.72-2.72 3.32 2.72h-.2l-2.16-1.768-1.768 1.768z"></path><path fill="#000" d="M50.75 12.592c.217.28.28.664.169 1.008.072-.328 0-.689-.2-.953l-.248-.304h.08l.2.249zm-.103 18.472l-1.816-1.817.04-.04 1.8 1.8 3.568-2.927a1.148 1.148 0 011.192-.12c.568.264 1.096.496 1.656.68.416.112.712.496.744.943-.008 0-.024-.007-.032-.007-.064-.416-.344-.776-.744-.88-.56-.184-1.08-.416-1.648-.681a1.167 1.167 0 00-1.2.12l-3.56 2.929zm.168-17.184a11.221 11.221 0 000-.001m-.264-1.536h-.088l-2.672-3.264.04-.04.304.368z"></path><path fill="#F9CE62" d="M49.703 21.175h3.664a7.308 7.308 0 001.504 2.456h-3.408a7.246 7.246 0 01-.272-.8 1.097 1.097 0 00-.856-.743c-.032-.089-.056-.177-.08-.264a1.143 1.143 0 00-.552-.649"></path><path fill="#000" d="M50.903 23.52a7.595 7.595 0 01-.608-1.44c.016 0 .032 0 .04.008.144.464.352.904.6 1.376a.74.74 0 01.072.168h-.048a.731.731 0 00-.056-.112"></path><path fill="#000" d="M50.255 21.824c.024.087.048.176.08.264-.008-.009-.024-.009-.04-.009a1.93 1.93 0 01-.064-.2c-.12-.336-.36-.6-.688-.704h.16c.256.129.448.36.552.649m-.105-6.328c.097-.304.217-.6.345-.888-.12.271-.216.544-.312.832a.636.636 0 01-.088.2c.024-.04.04-.096.056-.144"></path><path fill="#000" d="M48.35 14.015c.073-.232.145-.416.257-.648l-.84-1.024h2.704l.248.304c.2.264.272.624.2.952a.486.486 0 01-.064.184c-.016.032-.032.064-.04.096-.12.25-.224.488-.32.728-.128.29-.248.585-.344.89-.016.046-.032.102-.056.142a.208.208 0 01-.048.09 1.06 1.06 0 01-.8.454l-.136.016c-.112-.67-.696-1.07-1.288-1.07h-5.248c.16-.337.496-.577.896-.633l4.88-.48zM48.839 65l-5.76-5.217c.216-.247.408-.511.616-.767l6.416 5.816-1.672 1.84-.608-.552L48.839 65z"></path><path fill="#FFF" d="M49.215 16.24c.368-.024.672-.224.832-.512a.19.19 0 00.048-.088.636.636 0 00.088-.2c.096-.288.192-.56.312-.832.096-.24.2-.48.32-.728.008-.032.024-.064.04-.096a.505.505 0 00.064-.184 1.105 1.105 0 00-.168-1.008l-.2-.248h.096l1.032 1.256c.256.328.296.824.112 1.192-.264.568-.496 1.088-.68 1.656-.112.408-.48.712-.936.744l-1.584.16c.32-.2.544-.528.544-.912a.789.789 0 00-.024-.192l.104-.008z"></path><path fill="#000" d="M49.295 21.12l-3.696-.352v-.065l3.728.361a.962.962 0 01.376.111h-.16a.86.86 0 00-.248-.055"></path><path fill="#000" d="M49.543 21.175h-3.944v-.408l3.696.353a.828.828 0 01.248.055m.712.897l-4.656-.448v-.448h3.944c.328.104.568.368.688.704.016.064.04.136.064.2-.016-.008-.024-.008-.04-.008M49.11 16.2a.046.046 0 010 .048l-4.447.44v-.048l4.448-.44zm-.239 13.008l-.04.04-.96-.96.04-.04z"></path><path fill="#F9CE62" d="M48.75 10.032l1.009-1.008h3.928l1.408 1.152c.336.264.816.344 1.192.12.568-.304 1.088-.528 1.656-.681a.783.783 0 00.144-.063 8.2 8.2 0 012.808 1.784 5.206 5.206 0 00-.616-.032c-.28 0-.552.024-.816.048a7.17 7.17 0 00-3.136 1.12 4.72 4.72 0 00-1.144-.128h-4.536l-1.896-2.312z"></path><path fill="#FFF" d="M48.751 10.032l1.896 2.312h-.096l-2.416-2.936-.304-.368.016-.016h1.912z"></path><path fill="#000" d="M48.583 64.847l-5.544-5.016c.016-.016.032-.032.04-.048L48.839 65l-1.009 1.12-.224-.2.976-1.073z"></path><path fill="#F9CE62" d="M46.239 17.583l2.352-.23a1.45 1.45 0 01-.768.23h-1.584z"></path><path fill="#FFBC50" d="M48.583 64.847l-.976 1.073-5.584-5.049c.288-.288.592-.575.88-.888.048-.048.096-.104.136-.152l5.544 5.016z"></path><path fill="#000" d="M51.263 65.592l-3.336 3.704 2.336 2.112h-.032l-2.52-2.28 3.392-3.76 1.16 1.047-.04.049zm-1.489-32.256l-4.208-4.248a1.04 1.04 0 01-.072-1.456l3.112-3.872-.048-.128h2.4c.104.24.104.512.016.768a.28.28 0 01-.048.112c-.032.056-.064.112-.104.16l-2.928 3.56.016.016-.04.04.96.96 1.816 1.816.96.952 3.56-2.928a1.162 1.162 0 011.2-.112c.496.224.952.424 1.432.6 0 .024.008.04.008.064l.448 4.576h.864l.096.952h.88v1.28h-2.856c-.568 0-1.016-.448-1.096-1.016l-.48-4.872a4.902 4.902 0 01-.64-.264l-3.792 3.112c-.408.376-1.048.344-1.456-.072M47.847 9.024l-.016.016-.008-.016zm-.08 3.319H20.503c-2.784 0-4.912 2.128-4.912 4.913v3.92h1.92a23.043 23.043 0 00-5.24 2.127v-6.047a8.234 8.234 0 018.232-8.232h24.752c.024.136.064.264.136.383.04.064.056.128.104.176l2.272 2.76z"></path><path fill="#FFF" d="M45.599 17.647v3.056l-.936-.088v-3.032h1.576z"></path><g transform="translate(44.8 .188)"><mask id="mobile-device_svg__b" fill="#fff"><use xlink:href="#mobile-device_svg__a"></use></mask><path fill="#000" d="M3.023 8.836H.455a1.052 1.052 0 01.312-.904l1.376-1.368 2.864-2.832a1.057 1.057 0 011.464-.08l3.584 2.912h.728c.048-.016.096-.04.152-.064l.488-4.864A1.082 1.082 0 0112.519.612h5.992c.56 0 1.016.456 1.088 1.024l.496 4.88c.216.064.408.143.632.248l3.784-3.112c.416-.376 1.056-.329 1.472.08l4.2 4.24c.416.376.448 1.008.072 1.455l-3.112 3.792c.08.225.184.417.264.64l4.88.496c.592.064 1.008.56.976 1.12v6a1.1 1.1 0 01-.976 1.089l-4.88.488c-.08.224-.152.416-.264.64l3.112 3.784c.376.415.344 1.056-.072 1.472l-4.248 4.2c-.368.407-1.008.447-1.456.071l-3.872-3.111c-.216.072-.4.183-.632.264l-.488 4.872c-.032.52-.4.904-.864 1v-2.817l.296-3.032c.04-.447.344-.776.76-.936a7.418 7.418 0 001.64-.672c.376-.223.872-.143 1.208.113l3.56 2.927 2.776-2.783-.872-1.057-2.056-2.503c-.264-.329-.296-.825-.104-1.2.256-.56.48-1.08.664-1.648.12-.409.496-.713.944-.752l4.576-.448h-.192l-.008-3.977-.928-.095v-.912l-4.576-.457a.323.323 0 01-.088-.015 8.11 8.11 0 00-.592-1.376c-.232-.368-.152-.864.112-1.192l2.928-3.568-.96-.953-.008-.015.032-.04-2.768-2.777-3.568 2.92a1.17 1.17 0 01-1.208.12c-.496-.231-.968-.44-1.456-.608l-.448-4.575h-.84l-.096-1.008h-3.944l-.008.056h-.024l-.448 4.584a.983.983 0 01-.072.311.267.267 0 01-.056.105 1.13 1.13 0 01-.592.455 7.484 7.484 0 00-1.184.44 8.95 8.95 0 00-.64-.023h-1.2L6.415 6.564l-.616-.505-.504.505-2.272 2.272z" mask="url(#mobile-device_svg__b)"></path></g><path fill="#FFF" d="M44.663 17.583v-.895l4.448-.44a.775.775 0 01.024.191c0 .385-.224.713-.544.913l-2.352.231h-1.576z"></path><path fill="#000" d="M45.255 9.024h2.568l.008.016-.04.04 2.672 3.263h-2.696l-2.272-2.76c-.048-.047-.064-.111-.104-.176a1.098 1.098 0 01-.136-.383"></path><mask id="mobile-device_svg__d" fill="#fff"><use xlink:href="#mobile-device_svg__c"></use></mask><path fill="#000" d="M44.638 17.583h.024v-.895h-.024zm.025 3.032l.936.088v.064l-.96-.096v-3.088h.024z" mask="url(#mobile-device_svg__d)"></path><path fill="#000" d="M42.463 17.583v-2c0-.159.04-.319.112-.455h5.248c.592 0 1.176.4 1.288 1.072l-4.448.44v.048h-.024v.895h-2.176zm3.136 3.592h-3.136v-3.592h2.176v3.088l.96.096zm2.751 1.953l-4.88-.496c-.607-.032-1.007-.512-1.007-1.08v-.376h3.136v.448l4.656.448c.016 0 .024 0 .04.007.144.489.344.945.608 1.44a.74.74 0 01.056.113h-2.4c-.064-.16-.152-.321-.208-.504" mask="url(#mobile-device_svg__d)"></path><path fill="#000" d="M34.079 15.128h8.496a.985.985 0 00-.112.455v2h-8.384c-.816 0-1.304-.487-1.304-1.143 0-.816.488-1.312 1.304-1.312m14.48 8.504H35.79a23.452 23.452 0 00-5.824-2.456h12.496v.376c0 .568.4 1.048 1.008 1.08l4.88.496c.056.184.144.344.208.504" mask="url(#mobile-device_svg__d)"></path><path fill="#FFF" d="M40.487 60.896c.296-.288.6-.576.888-.888.288-.312.528-.64.792-.968l.872.792c-.04.047-.088.104-.136.151-.288.313-.592.6-.88.889l5.584 5.048-.696.776-6.424-5.8z" mask="url(#mobile-device_svg__d)"></path><path fill="#000" d="M41.374 60.008c-.288.312-.592.6-.888.888l6.424 5.8.696-.776.224.2-.76.84-6.84-6.168c.312-.304.64-.616.944-.944.304-.328.56-.688.84-1.032l1.064.968c-.008.016-.024.032-.04.048l-.872-.792c-.264.328-.504.656-.792.968" mask="url(#mobile-device_svg__d)"></path><path fill="#FFF" d="M31.374 51.92c0-.24.112-.409.216-.473a6.873 6.873 0 003.584-5.151 8.193 8.193 0 00.336-2.304 7.905 7.905 0 00-.848-3.577 8.006 8.006 0 011.736 4.977 8.029 8.029 0 01-4.16 7.04l-.232.08a.6.6 0 01-.632-.592" mask="url(#mobile-device_svg__d)"></path><path fill="#000" d="M30.719 37.943c-.12-.072-.232-.232-.232-.472 0-.344.288-.608.632-.583l.232.072c1.456.8 2.6 2.015 3.312 3.455a7.936 7.936 0 00-2.424-2.055l-.232-.072a.535.535 0 00-.464.183 6.276 6.276 0 00-.824-.528" mask="url(#mobile-device_svg__d)"></path><path fill="#000" d="M33.679 41.047a6.719 6.719 0 00-2.136-2.576c.104-.128.28-.2.464-.183l.232.072a7.936 7.936 0 012.424 2.055 7.905 7.905 0 01.848 3.577c0 .791-.12 1.568-.336 2.304.04-.297.056-.593.056-.897a6.855 6.855 0 00-1.552-4.352" mask="url(#mobile-device_svg__d)"></path><path fill="#FFF" d="M33.679 41.047a6.931 6.931 0 00-2.072-1.704c-.12-.072-.232-.232-.232-.472 0-.16.064-.296.168-.4a6.719 6.719 0 012.136 2.576" mask="url(#mobile-device_svg__d)"></path><path fill="#000" d="M30.487 50.52c0-.24.112-.409.216-.473a1.31 1.31 0 00.152-.087c.112-.057.224-.12.328-.2.112-.064.216-.136.32-.217a6.854 6.854 0 002.176-8.496 6.856 6.856 0 011.552 4.353c0 .303-.016.6-.056.896a8.032 8.032 0 01-3.824 4.736l-.232.08a.6.6 0 01-.632-.592" mask="url(#mobile-device_svg__d)"></path><path fill="#E8F7F9" d="M30.855 49.96c.112-.064.224-.128.328-.2a2 2 0 01-.328.2" mask="url(#mobile-device_svg__d)"></path><path fill="#000" d="M31.255 42.592a4.071 4.071 0 00-1.416-1.856.58.58 0 01.496-.144l.184.08c.68.303 1.264.752 1.736 1.288.272.632.416 1.32.416 2.032V44c0 .583-.104 1.16-.288 1.696.008-.096.008-.192.008-.296a3.975 3.975 0 00-1.136-2.808" mask="url(#mobile-device_svg__d)"></path><path fill="#FFF" d="M32.383 45.696A5.247 5.247 0 0032.671 44v-.008c0-.713-.144-1.4-.416-2.032a5.17 5.17 0 011.304 3.432v.008c0 1.64-.784 3.168-2.056 4.144-.104.08-.208.152-.32.216a4.476 4.476 0 01-.328.2c-.104.055-.224.112-.336.168l-.184.064a.594.594 0 01-.696-.577c0-.12.048-.24.112-.343l.216-.2a3.996 3.996 0 002.416-3.376" mask="url(#mobile-device_svg__d)"></path><path fill="#000" d="M29.174 15.128c.648 0 1.304.487 1.304 1.304 0 .656-.648 1.312-1.304 1.312-.824 0-1.312-.648-1.312-1.312 0-.817.488-1.304 1.312-1.304" mask="url(#mobile-device_svg__d)"></path><path fill="#FFF" d="M29.639 41.168c0-.168.08-.328.2-.432a4.071 4.071 0 011.416 1.856 4.788 4.788 0 00-1.168-.872l-.336-.208a.609.609 0 01-.112-.344" mask="url(#mobile-device_svg__d)"></path><path fill="#000" d="M29.967 21.175H17.51a23.496 23.496 0 015.024-.808 23.662 23.662 0 017.432.808m-.431 23.985a1.187 1.187 0 00-.888-.92 1.182 1.182 0 00-.44-1.184.609.609 0 01.168-.024 2.32 2.32 0 011.424.479c.032.153.048.313.048.48V44c0 .424-.112.815-.312 1.16" mask="url(#mobile-device_svg__d)"></path><path fill="#FFF" d="M28.374 46.592a1.194 1.194 0 001.16-1.424c.008 0 0-.008 0-.008.2-.345.312-.736.312-1.16v-.008c0-.168-.016-.328-.048-.48.568.431.936 1.112.936 1.88v.008c0 .72-.328 1.368-.84 1.8-.016.008-.032.024-.048.04-.152.112-.32.207-.488.303-.032.009-.056.025-.088.04-.28.113-.576.177-.896.177a.583.583 0 110-1.168" mask="url(#mobile-device_svg__d)"></path><path fill="#000" d="M28.863 40.111a.606.606 0 01-.112-.344c0-.352.336-.639.696-.575l.184.08a5.146 5.146 0 012.624 2.688 5.08 5.08 0 00-1.736-1.289l-.184-.079a.58.58 0 00-.496.143 4.309 4.309 0 00-.64-.415l-.336-.209zm.496 7.432c.168-.096.336-.19.488-.304a2.14 2.14 0 01-.488.304" mask="url(#mobile-device_svg__d)"></path><path fill="#000" d="M28.75 48.215a.68.68 0 01.113-.344l.216-.2c.064-.024.128-.056.192-.088.032-.016.056-.03.088-.04.176-.079.344-.183.488-.304.016-.015.032-.032.048-.04a3.98 3.98 0 001.608-3.2c0-.496-.088-.967-.248-1.407a3.97 3.97 0 011.136 2.807c0 .104 0 .2-.008.297a5.21 5.21 0 01-2.752 3.032l-.184.064a.594.594 0 01-.696-.577m-.104-3.975a1.188 1.188 0 01.888.928 2.364 2.364 0 01-2.048 1.192.584.584 0 110-1.168c.576 0 1.048-.416 1.16-.952" mask="url(#mobile-device_svg__d)"></path><path fill="#FFF" d="M28.374 44.208a.59.59 0 01-.592-.592c0-.264.176-.488.424-.56a1.182 1.182 0 01.44 1.184 1.014 1.014 0 00-.272-.032" mask="url(#mobile-device_svg__d)"></path><path fill="#000" d="M27.487 41.632c1.128 0 2.088.808 2.312 1.88a2.315 2.315 0 00-1.424-.48.609.609 0 00-.168.024c-.2-.16-.448-.248-.72-.248a.589.589 0 110-1.176" mask="url(#mobile-device_svg__d)"></path><path fill="#E8F7F9" d="M15.59 37.472V32c1.24-.84 2.6-1.504 4.049-1.976a16.232 16.232 0 0114.216 2.096 16.168 16.168 0 014.048 4l.032.056a16.17 16.17 0 012.04 7.088 16.135 16.135 0 01-4.176 11.712v.008a16.222 16.222 0 01-20.208 3.152v-6.52c.24.056.504.088.776.088h2.056l5.52 4.488c.272.256.648.4 1.088.416.936 0 1.696-.76 1.696-1.696V35.648c0-.656-.36-1.216-.896-1.496a1.694 1.694 0 00-1.688-1.608c-.384 0-.864.256-1 .336l-5.56 4.56a.642.642 0 00-.144.032H15.59zm13.16 2.296a.61.61 0 00.113.344l.336.208c.232.12.44.264.64.416a.582.582 0 00-.2.432c0 .128.048.256.112.344l.336.208c.448.24.84.536 1.168.872.16.44.248.912.248 1.408 0 1.28-.608 2.456-1.608 3.2.512-.432.84-1.08.84-1.8v-.008c0-.768-.368-1.448-.936-1.88a2.374 2.374 0 00-2.312-1.88.589.589 0 100 1.176c.272 0 .52.088.72.248a.583.583 0 00-.424.56.59.59 0 00.592.592c.096 0 .184.008.272.032a1.192 1.192 0 01-1.16.952.584.584 0 100 1.168c.872 0 1.64-.48 2.048-1.192a1.193 1.193 0 01-1.16 1.424.584.584 0 100 1.168c.32 0 .616-.064.896-.176-.064.032-.128.064-.192.088l-.216.2a.675.675 0 00-.112.344c0 .36.336.64.696.576l.184-.064a5.21 5.21 0 002.752-3.032 3.994 3.994 0 01-2.416 3.376l-.216.2a.675.675 0 00-.112.344c0 .36.336.64.696.576l.184-.064c.112-.056.232-.112.336-.168a1.486 1.486 0 01-.152.088c-.104.064-.216.232-.216.472a.6.6 0 00.632.592l.232-.08a8.03 8.03 0 003.824-4.736 6.876 6.876 0 01-3.584 5.152c-.104.064-.216.232-.216.472a.6.6 0 00.632.592l.232-.08a8.029 8.029 0 004.16-7.04c0-1.84-.632-3.584-1.736-4.976a7.977 7.977 0 00-3.312-3.456l-.232-.072a.584.584 0 00-.632.584c0 .24.112.4.232.472.288.16.568.328.824.528a.556.556 0 00-.168.4c0 .24.112.4.232.472a6.916 6.916 0 012.072 1.704c.432.904.664 1.912.664 2.952a6.83 6.83 0 01-2.84 5.544 5.241 5.241 0 002.056-4.144v-.008a5.17 5.17 0 00-1.304-3.432 5.153 5.153 0 00-2.624-2.688l-.184-.08a.598.598 0 00-.696.576z" mask="url(#mobile-device_svg__d)"></path><path fill="#F9CE62" d="M23.759 53.975l-4.296-3.504a.624.624 0 00.024-.176V39.191l5.272-4.335v18.655c0 .336-.28.61-.616.616a.676.676 0 01-.384-.152" mask="url(#mobile-device_svg__d)"></path><path fill="#FFF" d="M18.03 23.632a21.267 21.267 0 0110.169-.32c.432.096.864.2 1.288.32H18.03zm1.785 38.792a18.747 18.747 0 0016.088-4.064 18.717 18.717 0 006.568-15.224 18.612 18.612 0 00-6.16-12.96 18.52 18.52 0 00-3.976-2.744 18.624 18.624 0 014.928 3.2 18.612 18.612 0 016.16 12.96 18.745 18.745 0 01-22.656 19.287 18.393 18.393 0 01-4.608-1.647c1.16.52 2.384.92 3.656 1.192" mask="url(#mobile-device_svg__d)"></path><path fill="#000" d="M25.423 66.296a21.3 21.3 0 01-9.832-1.864v-.72a21.223 21.223 0 009.24 1.6 21.134 21.134 0 0014.688-6.976 21.242 21.242 0 004.448-20.776c-.44-1.352-1-2.648-1.68-3.856a20.601 20.601 0 012.272 4.84 21.232 21.232 0 01-4.448 20.768 21.11 21.11 0 01-14.688 6.984" mask="url(#mobile-device_svg__d)"></path><path fill="#000" d="M15.59 64.432a21.306 21.306 0 009.833 1.864 21.11 21.11 0 0014.688-6.984 21.231 21.231 0 004.448-20.768 20.601 20.601 0 00-2.272-4.84c-.04-.08-.088-.152-.128-.216a21.248 21.248 0 00-12.672-9.856h3.696c7.816 3.576 13.24 11.472 13.24 20.632 0 12.528-10.16 22.688-22.688 22.688-2.872 0-5.616-.537-8.144-1.512v-1.008z" mask="url(#mobile-device_svg__d)"></path><path fill="#000" d="M12.27 24.68a22.471 22.471 0 0111.465-3.113c3.368 0 6.568.736 9.448 2.064h-3.696c-.424-.12-.856-.224-1.288-.32a21.313 21.313 0 00-10.168.32h-2.44v.848a19.986 19.986 0 00-3.32 1.728V24.68zm3.32 40.76a22.566 22.566 0 008.145 1.512c12.528 0 22.688-10.16 22.688-22.688 0-9.16-5.424-17.056-13.24-20.632h2.608a22.492 22.492 0 012.912 2.016 23.683 23.683 0 018.488 14.728 23.67 23.67 0 01-3.544 16.632h.008l6.6 5.976a1.252 1.252 0 011.768-.088l8.072 7.288v1.224h-.608l-6.464-5.832-.76.84-1.16-1.048-3.392 3.76 2.52 2.28h-3.696l-1.208-1.096a1.252 1.252 0 01-.088-1.768l-6.616-5.968a23.63 23.63 0 01-15.552 5.256 23.424 23.424 0 01-7.48-1.44v-.952zm26.425-6.624c-.28.344-.536.704-.84 1.032-.304.328-.632.64-.944.944l6.84 6.168.76-.84.608.552 1.672-1.84-6.416-5.816c-.208.256-.4.52-.616.768l-1.064-.968z" mask="url(#mobile-device_svg__d)"></path><path fill="#000" d="M21.303 26.111a18.425 18.425 0 00-5.712 2.05v-.946a18.155 18.155 0 014.76-1.559 18.64 18.64 0 0111.984 1.775 18.639 18.639 0 00-11.032-1.32" mask="url(#mobile-device_svg__d)"></path><path fill="#FFF" d="M19.487 50.296a.629.629 0 01-.024.176l-1.128-.912a.65.65 0 00.064-.272V38.856a.208.208 0 01.072-.016l5.56-4.561c.096-.055.376-.207.672-.287a.7.7 0 01.056.255v.609l-5.272 4.336v11.104z" mask="url(#mobile-device_svg__d)"></path><path fill="#FFF" d="M24.03 34.28l-5.56 4.56a.208.208 0 00-.071.016v-.68l5.312-4.369c.16-.087.36-.168.44-.176a.62.62 0 01.552.361c-.296.08-.576.232-.672.287" mask="url(#mobile-device_svg__d)"></path><path fill="#000" d="M17.927 49.224h-.888V38.872h1.288a.234.234 0 01.072-.016v10.432a.65.65 0 01-.064.272h-.208v-.177l-.088-.063-.112-.096z" mask="url(#mobile-device_svg__d)"></path><path fill="#FFDE8D" d="M24.83 65.311c-3.191.16-6.343-.39-9.24-1.6v-2.744c.185.096.377.185.569.264a18.395 18.395 0 004.608 1.648 18.745 18.745 0 0022.656-19.287 18.612 18.612 0 00-6.16-12.96 18.6 18.6 0 00-4.928-3.2 18.634 18.634 0 00-11.984-1.776 18.12 18.12 0 00-4.76 1.56V25.71a21.219 21.219 0 0113.2-1.416 21.238 21.238 0 0113.368 9.193c.04.064.088.136.128.215a21.278 21.278 0 011.68 3.857 21.24 21.24 0 01-4.448 20.775 21.13 21.13 0 01-14.688 6.976" mask="url(#mobile-device_svg__d)"></path><path fill="#000" d="M18.03 23.632c-.831.224-1.64.512-2.44.848v-.848h2.44z" mask="url(#mobile-device_svg__d)"></path><path fill="#FFF" d="M15.59 24.48c.8-.337 1.609-.624 2.44-.849h11.457a21.245 21.245 0 0112.672 9.857 21.233 21.233 0 00-13.368-9.192 21.219 21.219 0 00-13.2 1.415V24.48z" mask="url(#mobile-device_svg__d)"></path><path fill="#000" d="M17.039 38.56H15.59v-1.088h1.848a.591.591 0 01.144-.032l5.56-4.561c.136-.08.616-.336 1-.336.904 0 1.64.713 1.688 1.609a1.602 1.602 0 00-.8-.209c-.104 0-.216.017-.328.049a.618.618 0 00-.552-.36c-.08.008-.28.088-.44.176l-5.312 4.368v.68c-.024 0-.048.008-.072.016h-1.288v-.312z" mask="url(#mobile-device_svg__d)"></path><path fill="#E8A51F" d="M16.495 39.647h.544v9.577H15.59v-9.417c.264-.104.576-.16.904-.16" mask="url(#mobile-device_svg__d)"></path><path fill="#000" d="M15.59 58.136a16.222 16.222 0 0020.209-3.152v-.008a16.135 16.135 0 004.176-11.712 16.17 16.17 0 00-2.04-7.088 16.187 16.187 0 012.928 8.488 16.135 16.135 0 01-4.176 11.712v.008a16.222 16.222 0 01-13.36 5.304 16.214 16.214 0 01-7.736-2.696v-.856z" mask="url(#mobile-device_svg__d)"></path><path fill="#000" d="M17.535 50.304H15.59v-.64c.264.104.576.16.904.16h1.632v-.264h.208l1.128.912 4.296 3.504c.112.096.24.136.384.152a.627.627 0 00.616-.616V34.248a.7.7 0 00-.056-.256c.112-.032.224-.048.328-.048.288 0 .56.072.8.208.008.032.008.064.008.096v19.264c0 .936-.76 1.696-1.696 1.696-.44-.016-.816-.16-1.088-.416l-5.52-4.488z" mask="url(#mobile-device_svg__d)"></path><path fill="#FFF" d="M15.59 50.304h1.945l5.52 4.488c.272.256.648.4 1.088.416.936 0 1.696-.76 1.696-1.696V34.248c0-.032 0-.064-.008-.096.536.28.896.84.896 1.496v19.264c0 .936-.76 1.696-1.696 1.696-.44-.016-.816-.16-1.088-.416l-5.52-4.488h-2.056a3.44 3.44 0 01-.776-.088v-1.312zm4.049-20.28A16.098 16.098 0 0015.59 32v-1.96a15.759 15.759 0 013.16-1.416 16.229 16.229 0 0114.216 2.096 16.166 16.166 0 014.936 5.4 16.135 16.135 0 00-4.048-4 16.232 16.232 0 00-14.216-2.096" mask="url(#mobile-device_svg__d)"></path><path fill="#000" d="M15.59 60.928c.185.112.377.208.569.304a7.317 7.317 0 01-.568-.264v-.04z" mask="url(#mobile-device_svg__d)"></path><path fill="#000" d="M19.815 62.424a18.272 18.272 0 01-3.656-1.192 7.74 7.74 0 01-.568-.304v-1.936a16.214 16.214 0 007.736 2.696 16.22 16.22 0 0013.36-5.305v-.008a16.13 16.13 0 004.176-11.711 16.19 16.19 0 00-2.928-8.489l-.032-.055a16.166 16.166 0 00-4.936-5.4 16.232 16.232 0 00-14.216-2.096c-1.112.36-2.168.832-3.16 1.416v-1.88a18.474 18.474 0 015.712-2.049 18.647 18.647 0 0111.032 1.32 18.592 18.592 0 013.976 2.744 18.614 18.614 0 016.16 12.96 18.717 18.717 0 01-6.568 15.225 18.75 18.75 0 01-16.088 4.064" mask="url(#mobile-device_svg__d)"></path><path fill="#FFF" d="M15.59 38.96a3.45 3.45 0 01.777-.088h.672v.775h-.544c-.328 0-.64.057-.904.16v-.847z" mask="url(#mobile-device_svg__d)"></path><path fill="#FFF" d="M16.367 38.872a3.44 3.44 0 00-.776.088v-.4h1.448v.312h-.672z" mask="url(#mobile-device_svg__d)"></path><path fill="#000" d="M16.495 49.824c-.328 0-.64-.056-.904-.16v-.44h2.336l.112.096.088.063v.441h-1.632zm-.905 14.608v1.008a21.957 21.957 0 01-3.32-1.6v-1.28a21.34 21.34 0 003.32 1.872" mask="url(#mobile-device_svg__d)"></path><path fill="#000" d="M15.59 63.711v.72a21.41 21.41 0 01-3.32-1.87v-.594a20.459 20.459 0 003.32 1.744" mask="url(#mobile-device_svg__d)"></path><path fill="#FFDE8D" d="M15.59 60.968v2.744a20.617 20.617 0 01-3.32-1.744v-3.056c1.025.8 2.137 1.488 3.32 2.056" mask="url(#mobile-device_svg__d)"></path><path fill="#000" d="M15.59 60.928v.04a18.184 18.184 0 01-3.32-2.057v-.32a18.593 18.593 0 003.32 2.337m0-2.792v.856a16.204 16.204 0 01-3.32-2.952v-.44c.993.992 2.113 1.84 3.32 2.536" mask="url(#mobile-device_svg__d)"></path><path fill="#FFF" d="M15.59 50.304v1.312c-1.071-.248-1.871-.992-1.991-1.896.496.36 1.152.584 1.88.584h.112z" mask="url(#mobile-device_svg__d)"></path><path fill="#E8A51F" d="M14.847 49.143a.65.65 0 01-.128-.39v-8.026c0-.384.352-.735.872-.92v9.417h-.112c-.224 0-.44-.032-.632-.08" mask="url(#mobile-device_svg__d)"></path><path fill="#FFF" d="M15.59 30.04V32a15.47 15.47 0 00-3.32 2.96v-2.368a15.93 15.93 0 013.32-2.552" mask="url(#mobile-device_svg__d)"></path><path fill="#000" d="M15.59 28.16v1.88a15.897 15.897 0 00-3.32 2.552V30.52a17.517 17.517 0 013.32-2.36" mask="url(#mobile-device_svg__d)"></path><path fill="#FFDE8D" d="M15.59 25.711v1.504a17.594 17.594 0 00-3.32 2.056v-1.679a20.556 20.556 0 013.32-1.88" mask="url(#mobile-device_svg__d)"></path><path fill="#FFF" d="M15.59 24.48v1.231a20.561 20.561 0 00-3.32 1.881v-1.385a19.989 19.989 0 013.32-1.728" mask="url(#mobile-device_svg__d)"></path><path fill="#000" d="M14.847 49.143c.192.05.408.081.632.081h.112v.44a1.666 1.666 0 01-.608-.385.7.7 0 01-.136-.136M12.27 63.84a21.957 21.957 0 003.32 1.6v.952a23.081 23.081 0 01-3.32-1.512v-1.04z" mask="url(#mobile-device_svg__d)"></path><path fill="#FFF" d="M15.59 39.808c-.52.184-.871.536-.871.92v8.024c0 .136.04.272.128.392-.624-.176-1.072-.592-1.072-1.056v-7.8c.312-.64.984-1.136 1.816-1.328v.848z" mask="url(#mobile-device_svg__d)"></path><path fill="#FFF" d="M15.59 38.96c-.831.192-1.503.687-1.815 1.328v-.592c0-.617.776-1.136 1.704-1.136h.112v.4z" mask="url(#mobile-device_svg__d)"></path><path fill="#000" d="M12.27 56.04a16.204 16.204 0 003.32 2.952v1.936a18.588 18.588 0 01-3.32-2.336V56.04zm2.713-6.76c.152.16.36.287.608.383v.64h-.112a3.209 3.209 0 01-1.88-.583 2.149 2.149 0 01-.016-.232v-8.393c0-.288.064-.56.192-.807v7.8c0 .464.448.88 1.072 1.055.032.05.088.096.136.136" mask="url(#mobile-device_svg__d)"></path><path fill="#000" d="M15.59 37.472v1.088h-.111c-.928 0-1.704.52-1.704 1.136v.592c-.128.248-.192.52-.192.808v8.392c0 .08.008.16.016.232-.56-.408-.904-.984-.904-1.632v-8.392c0-1.224 1.248-2.224 2.784-2.224h.112z" mask="url(#mobile-device_svg__d)"></path><path fill="#E8F7F9" d="M13.599 49.72c.12.904.92 1.648 1.992 1.895v6.521a15.984 15.984 0 01-3.32-2.536v-7.512h.424c0 .648.344 1.223.904 1.632" mask="url(#mobile-device_svg__d)"></path><path fill="#000" d="M12.27 29.272a17.594 17.594 0 013.32-2.056v.944a17.562 17.562 0 00-3.32 2.36v-1.248zm11.465-7.704a22.47 22.47 0 00-11.464 3.112v-1.376a23.092 23.092 0 015.24-2.128h12.456c2.04.552 4 1.376 5.824 2.456h-2.608a22.501 22.501 0 00-9.448-2.064" mask="url(#mobile-device_svg__d)"></path><path fill="#E8F7F9" d="M15.479 37.472c-1.536 0-2.784 1-2.784 2.224v8.392h-.424V34.96a15.422 15.422 0 013.32-2.96v5.472h-.112z" mask="url(#mobile-device_svg__d)"></path><path fill="#000" d="M12.27 61.968v.592a21.24 21.24 0 01-6.375-6.944c1 1.552 2.216 2.984 3.608 4.24a20.091 20.091 0 002.768 2.112" mask="url(#mobile-device_svg__d)"></path><path fill="#E8F7F9" d="M12.27 48.088V55.6a15.82 15.82 0 01-1.823-2.168 16.304 16.304 0 01-1.12-13.393 16.096 16.096 0 012.944-5.079v13.128z" mask="url(#mobile-device_svg__d)"></path><path fill="#000" d="M10.447 53.432a15.767 15.767 0 001.824 2.168v.44a15.29 15.29 0 01-1.288-1.72 16.33 16.33 0 01-.536-.888" mask="url(#mobile-device_svg__d)"></path><path fill="#FFF" d="M12.27 32.592v2.368C11 36.44 10 38.16 9.328 40.04a16.302 16.302 0 001.12 13.392 7.267 7.267 0 01-.352-.512A16.274 16.274 0 018.44 38.64a16.217 16.217 0 013.832-6.048" mask="url(#mobile-device_svg__d)"></path><path fill="#000" d="M12.27 56.04v2.552a18.953 18.953 0 01-4.511-6 18.693 18.693 0 01.248-16.576 18.468 18.468 0 014.264-5.496v2.072a16.225 16.225 0 00-3.832 6.048 16.274 16.274 0 001.656 14.28c.112.176.224.344.352.512.168.304.352.6.536.888a15.29 15.29 0 001.288 1.72" mask="url(#mobile-device_svg__d)"></path><path fill="#000" d="M7.055 35.56a18.544 18.544 0 015.216-6.288v1.248a18.477 18.477 0 00-4.264 5.495 18.695 18.695 0 00-.248 16.577 18.941 18.941 0 004.512 6v.319a18.71 18.71 0 01-5.464-6.775 18.693 18.693 0 01.248-16.576" mask="url(#mobile-device_svg__d)"></path><path fill="#FFDE8D" d="M12.27 29.272a18.541 18.541 0 00-5.215 6.288 18.693 18.693 0 00-.248 16.576c1.28 2.696 3.168 5 5.464 6.776v3.056a20.091 20.091 0 01-2.768-2.112 21.161 21.161 0 01-3.608-4.24 21.181 21.181 0 01-2.776-9.464 21.209 21.209 0 015.456-15.32 21.136 21.136 0 013.696-3.24v1.68z" mask="url(#mobile-device_svg__d)"></path><path fill="#FFF" d="M5.895 55.615a21.2 21.2 0 01-3.368-10.448 21.236 21.236 0 019.744-18.96v1.385a21.095 21.095 0 00-3.696 3.24 21.207 21.207 0 00-5.456 15.32c.168 3.36 1.136 6.6 2.776 9.463" mask="url(#mobile-device_svg__d)"></path><path fill="#000" d="M2.527 45.168a21.203 21.203 0 003.368 10.448 21.24 21.24 0 004.2 5.224c.688.624 1.416 1.2 2.176 1.72v1.28C5.55 59.904 1.039 52.608 1.039 44.264c0-8.352 4.512-15.648 11.232-19.584v1.528a21.236 21.236 0 00-9.744 18.96" mask="url(#mobile-device_svg__d)"></path><path fill="#000" d="M12.27 23.304v1.376C5.55 28.616 1.04 35.912 1.04 44.264c0 8.344 4.512 15.64 11.232 19.576v1.04a23.569 23.569 0 01-7.584-6.624A23.765 23.765 0 01.03 45.296a23.734 23.734 0 0112.24-21.992" mask="url(#mobile-device_svg__d)"></path><path stroke="#231F20" stroke-width="0.5" d="M31.503 49.543a6.852 6.852 0 002.176-8.496 6.719 6.719 0 00-2.136-2.576 6.276 6.276 0 00-.824-.528c-.12-.072-.232-.232-.232-.472 0-.344.288-.608.632-.583l.232.071c1.456.8 2.6 2.016 3.312 3.456a7.902 7.902 0 01.848 3.577 8.026 8.026 0 01-4.16 7.039l-.232.08a.6.6 0 01-.632-.59c0-.242.112-.41.216-.474a1.31 1.31 0 00.152-.087c.112-.057.224-.12.328-.2.112-.065.216-.136.32-.217z" mask="url(#mobile-device_svg__d)"></path><path stroke="#231F20" stroke-width="0.5" d="M29.839 40.736a4.395 4.395 0 00-.64-.416l-.336-.208a.609.609 0 01-.112-.344c0-.352.336-.64.696-.576l.184.08a5.153 5.153 0 012.624 2.688c.272.632.416 1.32.416 2.032V44a5.21 5.21 0 01-3.04 4.728l-.184.064a.593.593 0 01-.696-.576c0-.12.048-.24.112-.344l.216-.2c.064-.024.128-.056.192-.088.032-.016.056-.032.088-.04.168-.096.336-.192.488-.304.016-.016.032-.032.048-.04 1-.744 1.608-1.92 1.608-3.2 0-.496-.088-.968-.248-1.408a4.071 4.071 0 00-1.416-1.856z" mask="url(#mobile-device_svg__d)"></path><path stroke="#231F20" stroke-width="0.5" d="M28.207 43.056a1.14 1.14 0 00-.72-.249.588.588 0 110-1.175c1.128 0 2.088.807 2.312 1.88.032.152.048.312.048.48V44c0 .424-.112.815-.312 1.16 0 0 .008.008 0 .008a2.366 2.366 0 01-2.048 1.192.583.583 0 110-1.168 1.193 1.193 0 00.72-2.136z" mask="url(#mobile-device_svg__d)"></path><path stroke="#231F20" stroke-width="0.8" d="M17.039 49.224h-1.56c-.224 0-.44-.032-.632-.08" mask="url(#mobile-device_svg__d)"></path><path stroke="#231F20" stroke-width="0.8" d="M25.83 34.152a1.694 1.694 0 00-1.687-1.609c-.384 0-.864.257-1 .336l-5.56 4.56a.702.702 0 00-.144.032h-1.96c-1.536 0-2.784 1-2.784 2.225v8.392c0 .648.344 1.223.904 1.632.496.36 1.152.583 1.88.583h2.056l5.52 4.489c.272.255.648.4 1.088.415.936 0 1.696-.76 1.696-1.696V34.247c0-.032 0-.064-.008-.095z" mask="url(#mobile-device_svg__d)"></path><path stroke="#231F20" stroke-width="0.8" d="M17.039 49.224h.888l.112.096.088.063v.441h-1.632c-.328 0-.64-.056-.904-.16a1.64 1.64 0 01-.608-.385.7.7 0 01-.136-.136c-.624-.175-1.072-.591-1.072-1.055v-8.392c0-.617.776-1.136 1.704-1.136h1.56v10.664zm7.72-14.368V53.51c0 .336-.28.609-.616.617a.677.677 0 01-.384-.153l-4.296-3.503-1.128-.912a.65.65 0 00.064-.272V38.176l5.312-4.369c.16-.087.36-.168.44-.175a.618.618 0 01.608.615v.609zm.48-.209c-.032.01-.104.032-.184.064" mask="url(#mobile-device_svg__d)"></path><path fill="#FFF" d="M37.847 77.952c-.656 0-1.312.648-1.312 1.303 0 .656.656 1.313 1.312 1.313.648 0 1.304-.657 1.304-1.313 0-.648-.648-1.303-1.304-1.303" mask="url(#mobile-device_svg__d)"></path><path fill="#FCF3C0" d="M39.595 79.7c0-.648-.648-1.304-1.304-1.304s-1.312.648-1.312 1.304.656 1.312 1.312 1.312c.648 0 1.304-.656 1.304-1.312" mask="url(#mobile-device_svg__d)"></path><path fill="#000" d="M37.847 80.568c-.656 0-1.312-.656-1.312-1.313 0-.655.656-1.303 1.312-1.303s1.304.656 1.304 1.303c0 .657-.656 1.313-1.304 1.313m0-5.072c-2.128 0-3.768 1.8-3.768 3.759 0 2.129 1.64 3.769 3.768 3.769 2.12 0 3.76-1.64 3.76-3.77 0-1.958-1.632-3.758-3.76-3.758" mask="url(#mobile-device_svg__d)"></path></g></g></svg>