<svg viewBox="0 0 77 77" id="instruction-zoom-icon" role="img" aria-labelledby="zoom-icon-title" class="sc-GvgMv flOfrS"><title id="zoom-icon-title">instruction-zoom-icon</title><defs><path id="zoom_svg__a" d="M0 .535h43.005V41.61H0z"></path></defs><g fill="none" fill-rule="evenodd"><circle cx="38.5" cy="38.5" r="38.5" fill="#f3f7fd"></circle><path fill="#FFF" d="M52.08 38.616c0-8.931-7.24-16.17-16.171-16.17-8.93 0-16.17 7.239-16.17 16.17 0 8.93 7.24 16.17 16.17 16.17 8.93 0 16.17-7.24 16.17-16.17"></path><path fill="#E8F5F9" d="M47.997 36.191a11.418 11.418 0 01-2.39 11.167 11.364 11.364 0 01-7.894 3.749 11.414 11.414 0 01-11.988-10.826 11.418 11.418 0 012.928-8.234 11.436 11.436 0 0110.87-3.513 11.416 11.416 0 018.474 7.657"></path><path fill="#FFF" d="M59.957 58.053c.741.67.8 1.815.13 2.557-.683.72-1.81.777-2.557.13l-6.207-5.84 2.416-2.68 6.218 5.832zm-11.019-9.067l3.193 2.969-1.265 1.4-3.199-2.962c.22-.218.452-.436.67-.672.22-.235.4-.487.6-.735"></path><path fill="#FFBC50" d="M61.063 57.962c.73.66.787 1.786.127 2.516a1.825 1.825 0 01-2.516.128l-5.944-5.603 2.377-2.638 5.956 5.597z"></path><path fill="#FFDE8D" d="M49.937 38.142a13.249 13.249 0 00-4.384-9.235 13.353 13.353 0 00-11.373-3.222 13.315 13.315 0 00-9.475 7.056c-1.896 3.692-1.96 8.061-.177 11.811s5.21 6.459 9.27 7.33a13.346 13.346 0 0011.462-2.893 13.34 13.34 0 004.677-10.847m.813-3.6a15.127 15.127 0 01-3.17 14.8 15.036 15.036 0 01-10.465 4.972 15.137 15.137 0 01-12.008-25.267 15.153 15.153 0 0114.408-4.659A15.135 15.135 0 0150.75 34.542"></path><path fill="#FFBC50" d="M50.134 49.13l2.9 2.705-1.188 1.316-2.907-2.699c.207-.204.425-.409.63-.63.206-.222.376-.46.565-.691"></path><g transform="translate(19 21.036)"><mask id="zoom_svg__b" fill="#fff"><use xlink:href="#zoom_svg__a"></use></mask><path fill="#000" d="M28.157 27.608a15.136 15.136 0 003.17-14.803A15.14 15.14 0 001.8 18.226a15.134 15.134 0 0015.892 14.353 15.062 15.062 0 0010.465-4.97zm3.597 4.522l1.192-1.318-2.902-2.702c-.188.233-.36.467-.564.69-.206.221-.422.427-.633.632l2.907 2.698zm8.964 7.072c.661-.73.604-1.86-.125-2.514l-5.738-5.34-2.377 2.634 5.726 5.35c.73.633 1.841.576 2.514-.13zm2.28-1.363a3.513 3.513 0 01-.912 2.594 3.549 3.549 0 01-2.496 1.174 3.58 3.58 0 01-2.582-.952l-6.382-5.95a.893.893 0 01-.063-1.26L27.52 30.63a16.834 16.834 0 01-11.081 3.745 16.849 16.849 0 01-10.864-4.36A16.932 16.932 0 01.022 18.317 16.91 16.91 0 014.36 6.119a16.912 16.912 0 0123.222-1.801 16.87 16.87 0 016.042 10.494 16.869 16.869 0 01-2.526 11.85h.006l3.033 2.822a.894.894 0 011.26-.062l6.387 5.943a3.543 3.543 0 011.214 2.474z" mask="url(#zoom_svg__b)"></path></g><path fill="#F9CE62" d="M40.498 42.11a1.552 1.552 0 00-.348-.94c.165-.04.171-.097.302.023.285.256.257.575.274.951.017.616-.177.986-.661 1.118.285-.297.45-.708.433-1.152"></path><path fill="#231F20" d="M39.495 41.523a.361.361 0 01-.017-.513.362.362 0 01.513-.018c.057.058.114.115.16.178h-.006c-.445.107-.377.615-.223.758.308.278.08.797-.268.758a.07.07 0 01-.045-.017.841.841 0 00.165-.537.878.878 0 00-.28-.609"></path><path fill="#231F20" d="M38.93 43.04a.873.873 0 00.679-.371.07.07 0 00.045.017c.348.04.576-.48.268-.758-.154-.143-.222-.65.222-.758h.006c.217.262.336.592.348.94.017.444-.148.855-.433 1.152-.126.04-.268.062-.428.068a1.008 1.008 0 01-.74-.29h.033zm-.798-6.858c0 .023-.08.41-.142.558-.051.006-.188.012-.36.04.103-.222.172-.455.2-.701.188.045.302.103.302.103m-.245 1.568a.357.357 0 01-.273.142.363.363 0 01-.234-.08.065.065 0 01-.029-.028c.183-.109.434-.171.61-.177h.006c0 .006.006.006.011.011.006.006 0 .006 0 .006a1.147 1.147 0 01-.09.126m-.422 1.293a.206.206 0 01-.143-.051h.011c.08 0 .16.023.223.068a.371.371 0 00-.091-.017"></path><path fill="#F9CE62" d="M36.884 37.06a1.8 1.8 0 01.747-.28c-.034.08-.074.154-.114.229a1.776 1.776 0 00-.251-.018 1.425 1.425 0 00-.382.069"></path><path fill="#231F20" d="M37.01 40.736a3.477 3.477 0 01-.502-.13c.097.016.2.033.302.045a.46.46 0 01.199.085M35.95 38.4a1.373 1.373 0 01.934-1.34c-.388.25-.707.718-.638 1.584.022.234.16.587.399.89a1.347 1.347 0 01-.696-1.135"></path><path fill="#231F20" d="M35.191 36.045a2.518 2.518 0 00-1.066 2.15c.04 1.27.895 2.13 2.354 2.404.006 0 .017.006.029.006.16.057.325.097.501.131l.006.006c.137.108.718.604.986 1.34.297.82.627.958.89.958h.005c.194.181.439.301.741.29.16-.005.302-.029.428-.069-.28.297-.673.491-1.112.502-1.094.04-1.499-1.066-1.636-1.43-.177-.48-.547-.839-.7-.976-1.962-.267-3.159-1.436-3.216-3.135a3.273 3.273 0 013.152-3.385 3.27 3.27 0 011.203.188 2.538 2.538 0 00-.541-.97c.376.252.627.656.786 1.186-.342-.12-.33-.165-.707-.154a2.963 2.963 0 00-2.092.947c-.005 0-.01 0-.01.011m-.086-2.838a2.528 2.528 0 00-2.332 2.616.368.368 0 01-.353.376.362.362 0 01-.376-.347 3.278 3.278 0 013.158-3.387 3.266 3.266 0 012.308.855 3.005 3.005 0 00-2.405-.113"></path><path fill="#E8A51F" d="M35.888 30.901c1.902-.065 3.89.954 4.78 2.712a.33.33 0 01-.13.438.306.306 0 01-.42-.136c-.779-1.54-2.542-2.423-4.207-2.366-2.411.083-4.72 2.117-4.633 4.632.053 1.544 1.08 2.79 1.765 3.463 1.983 1.947 2.938 3.247 3.472 4.349.603 1.247 1.371 2.393 2.259 2.363 1.198-.041 2.306-.793 2.263-2.044a.316.316 0 01.3-.334.316.316 0 01.32.312c.056 1.609-1.32 2.66-2.86 2.714-1.14.038-2.123-1.245-2.837-2.72-.533-1.101-1.433-2.294-3.342-4.168-.771-.757-1.9-2.15-1.961-3.914-.099-2.873 2.478-5.206 5.231-5.3"></path><path fill="#F9CE62" d="M37.978 37.618a3.187 3.187 0 00.605-1.995 3.256 3.256 0 00-1.072-2.303c.935.457 1.585 1.374 1.625 2.452a2.827 2.827 0 01-.633 1.863.313.313 0 01-.25.12.314.314 0 01-.212-.063.269.269 0 01-.063-.068s.006 0 0-.006m-.091 2.48c-.536.085-.963-.2-1.242-.564.21.124.456.193.712.182a.363.363 0 00.353-.376.35.35 0 00-.153-.28c.233.063.66.337.666.49.006.177.183.468-.336.548m-1.208-1.722a.635.635 0 01.61-.655h.006a.26.26 0 00.057.062c-.149.092-.251.206-.245.337.01.25.034.719.216.872a.637.637 0 01-.644-.616"></path><path fill="#231F20" d="M36.069 33.013a2.981 2.981 0 011.442.307 3.252 3.252 0 011.072 2.303 3.186 3.186 0 01-.605 1.995c-.005-.006-.011-.006-.011-.01h-.006a1.399 1.399 0 00-.61.175.282.282 0 01-.057-.062h-.005a.635.635 0 00.034 1.271c.04.035.085.051.142.051.023 0 .057.006.092.017.09.063.148.16.154.28a.365.365 0 01-.354.376 1.279 1.279 0 01-.712-.183c-.24-.302-.377-.655-.4-.889-.068-.866.251-1.334.639-1.584.12-.04.25-.063.382-.069.085 0 .165.006.25.018.04-.075.08-.149.115-.229.17-.028.308-.033.359-.04.063-.148.142-.535.142-.558 0 0-.114-.057-.302-.103.012-.074.017-.148.023-.222a2.505 2.505 0 00-1.271-.29 2.508 2.508 0 00-1.38.467 2.958 2.958 0 012.092-.946c.377-.012.365.034.707.153-.16-.53-.41-.934-.786-1.185a2.521 2.521 0 00-1.99-.861c-.04 0-.08.006-.12.012.297-.114.622-.183.964-.194"></path><path fill="#F9CE62" d="M36.48 40.6c-1.26-.41-2.013-1.323-2.053-2.548a2.785 2.785 0 01.764-2.007c0-.011.006-.011.012-.011.387-.28.866-.45 1.379-.468.445-.017.884.085 1.271.291-.006.074-.011.148-.023.222a1.748 1.748 0 00-.684-.028c-1.31.228-2.194 1.544-1.852 2.605.387 1.18.963 1.27 2.234 1.664.736.228 1.214.889 1.363 1.192.319.684.501 1.088.718 1.157a.867.867 0 01-.679.37h-.039c-.456-.41-.662-1.146-.747-1.368-.16-.417-.661-.758-.798-.878l-.33-.051-.006-.006c-.012-.011-.023-.017-.023-.017a.46.46 0 00-.177-.068 5.32 5.32 0 01-.302-.046c-.011 0-.023-.005-.029-.005m-3.277-4.623c-.04-1.248.758-2.342 1.904-2.77.04-.006.08-.012.12-.012a2.523 2.523 0 011.989.86c-.302-.204-.684-.307-1.163-.29-1.277.046-2.07.644-2.172 1.92-.023.286-.262.565-.598.48-.177-.052-.074-.011-.08-.188"></path><path fill="#231F20" d="M31.52 40.371c-.9-.849-1.989-2.274-2.057-4.252-.109-3.22 2.422-5.927 5.643-6.042a5.888 5.888 0 015.369 3.118.365.365 0 01-.154.49.36.36 0 01-.49-.148 5.136 5.136 0 00-4.703-2.73 5.12 5.12 0 00-4.936 5.29c.057 1.726 1.026 2.992 1.824 3.744 2.32 2.178 3.175 3.677 3.796 4.914.707 1.397 1.55 2.057 2.594 2.023a2.549 2.549 0 002.45-2.633.363.363 0 01.354-.37c.2-.012.365.147.377.347a3.28 3.28 0 01-3.158 3.38c-1.334.046-2.428-.77-3.266-2.423-.622-1.23-1.414-2.61-3.643-4.708"></path><path stroke="#231F20" stroke-width="0.5" d="M39.609 42.669a.84.84 0 00.165-.536.885.885 0 00-.28-.61.362.362 0 11.496-.53c.057.057.114.114.16.176.217.263.336.593.348.941.017.445-.148.855-.433 1.151-.28.297-.673.49-1.112.502-1.094.04-1.499-1.066-1.636-1.43-.177-.48-.547-.84-.7-.975-1.962-.269-3.159-1.437-3.216-3.135a3.273 3.273 0 013.152-3.386 3.27 3.27 0 011.203.188 2.538 2.538 0 00-.541-.97 2.524 2.524 0 00-1.99-.86c-.04 0-.08.006-.12.012a2.527 2.527 0 00-2.33 2.616c.005.2-.155.37-.354.376a.362.362 0 01-.376-.348 3.276 3.276 0 013.157-3.385 3.262 3.262 0 012.309.855 3.25 3.25 0 011.072 2.302 3.192 3.192 0 01-.605 1.995c.006.006 0 .006 0 .006a1.047 1.047 0 01-.09.125.357.357 0 01-.274.143.363.363 0 01-.263-.108.313.313 0 01-.057-.063h-.005a.635.635 0 00.034 1.271h.011c.08 0 .16.023.223.068.09.063.148.16.153.28.006.2-.148.37-.353.376a1.284 1.284 0 01-.712-.182 1.347 1.347 0 01-.696-1.135 1.377 1.377 0 01.935-1.34c.12-.04.25-.062.382-.068.085 0 .165.006.25.017.04-.074.08-.148.115-.228.102-.222.17-.456.2-.701.01-.074.016-.148.022-.222a2.497 2.497 0 00-1.271-.29 2.492 2.492 0 00-1.38.467c-.005 0-.01 0-.01.011a2.518 2.518 0 00-1.067 2.15c.04 1.27.895 2.13 2.354 2.404.006 0 .017.006.029.006.097.017.2.034.302.046a.46.46 0 01.199.085l.006.006c.137.108.718.604.986 1.34.297.82.627.957.89.957h.039a.867.867 0 00.679-.37z"></path><path stroke="#231F20" stroke-width="0.5" d="M35.106 30.077a5.888 5.888 0 015.369 3.118c.091.176.023.4-.154.49a.36.36 0 01-.49-.148 5.136 5.136 0 00-4.703-2.73 5.118 5.118 0 00-4.936 5.29c.057 1.727 1.026 2.992 1.824 3.744 2.32 2.178 3.175 3.677 3.796 4.914.707 1.396 1.55 2.057 2.594 2.023a2.547 2.547 0 002.45-2.633.364.364 0 01.354-.371c.2-.01.365.149.377.348a3.28 3.28 0 01-3.158 3.38c-1.334.045-2.428-.77-3.266-2.423-.622-1.23-1.414-2.61-3.643-4.707-.9-.85-1.989-2.275-2.057-4.253-.109-3.22 2.422-5.928 5.643-6.042z"></path><path fill="#000" d="M44.813 46.227a11.493 11.493 0 002.975-8.345 11.557 11.557 0 00-4.993-8.937 11.563 11.563 0 00-10.129-1.493 11.587 11.587 0 00-6.167 17.311 11.609 11.609 0 008.795 5.25c3.59.29 7.108-1.107 9.519-3.78v-.006zm4.754-8.436a13.335 13.335 0 01-4.68 10.847 13.357 13.357 0 01-20.731-4.434 13.318 13.318 0 01.177-11.81 13.302 13.302 0 019.473-7.057 13.348 13.348 0 0111.372 3.22 13.262 13.262 0 014.389 9.234z"></path></g></svg>