<svg viewBox="0 0 77 77" id="instruction-result-icon" role="img" aria-labelledby="result-icon-title" class="sc-gsWcZM eBIxiA"><title id="result-icon-title">instruction-result-icon</title><defs><path id="result_svg__a" d="M0 33.6h38.752V.004H0z"></path></defs><g fill="none" fill-rule="evenodd"><circle cx="38.5" cy="38.5" r="38.5" fill="#f3f7fd"></circle><path fill="#F1563F" d="M46.353 41.147v1.724h-.912l.456-1.724zm-.972 0l-.456 1.724h-.812l.456-1.724zm-2.636 0l-.456 1.724h-.472v-1.724z"></path><path fill="#B0D135" d="M51.641 36.727v1.724h-.944l.456-1.724zm-2.312 0l-.456 1.724h-.812l.456-1.724zm-1.312 0l-.456 1.724h-.812l.456-1.724zm-1.312 0l-.456 1.724h-.808l.44-1.724zm-1.324 0l-.456 1.724h-.812l.456-1.724zm-2.624 0l-.456 1.724h-.484v-1.724z"></path><path fill="#F9CE62" d="M48.017 32.295l-.456 1.724h-.812l.456-1.724zm-1.312.012l-.456 1.724h-.808l.456-1.72zm-3.96-.012l-.456 1.724h-.472v-1.724z"></path><path fill="#F1563F" d="M43.613 42.871h-.808l.456-1.724h.808z"></path><path fill="#F9CE62" d="M48.989 34.031h-.928l.456-1.72h.472zm-5.376 0h-.808l.456-1.72h.808zm1.312 0h-.812l.456-1.72.812-.004z"></path><path fill="#B0D135" d="M49.829 36.727h.808l-.456 1.724h-.808zm-6.216 1.724h-.808l.456-1.724h.808z"></path><g transform="translate(19 23.396)"><path fill="#FDF0D0" d="M16.887 9.817h-3.736V6.085a4.19 4.19 0 013.736 3.732"></path><path fill="#F1563F" d="M13.816 10.653h3.072a4.175 4.175 0 01-.804 2.064l-2.268-2.064z"></path><path fill="#B0D135" d="M12.571 10.653l2.952 2.68a4.169 4.169 0 01-2.796 1.076 4.17 4.17 0 01-4.144-3.756h3.988z"></path><path fill="#F9CE62" d="M10.647 5.257V8.15H7.755a3.337 3.337 0 012.892-2.892"></path><path fill="#E9F4FF" d="M7.593 22.657a.535.535 0 00-1.068 0 .535.535 0 101.068 0zm0-4.272a.535.535 0 00-1.068 0 .535.535 0 101.068 0zm0 2.22v-.164a.455.455 0 00-.456-.452h-.16a.454.454 0 00-.452.452v.164c0 .248.204.452.452.452h.16a.455.455 0 00.456-.452zm4.144-11.592V5.257a.415.415 0 00-.416-.416c-1.108 0-2.168.44-2.952 1.22a4.185 4.185 0 00-1.22 2.952.415.415 0 00.416.416h3.752c.112 0 .22-.044.296-.124a.406.406 0 00.124-.292zm6.256 1.668a5.005 5.005 0 00-5.004-5.008.42.42 0 00-.42.416v4.172H8.397a.42.42 0 00-.416.42 5.005 5.005 0 005.008 5.004c1.328 0 2.6-.528 3.54-1.464a5.018 5.018 0 001.464-3.54zm1.348 11.976a.535.535 0 00-.536-.532H9.193a.532.532 0 00-.532.532c0 .296.236.536.532.536h9.612c.296 0 .536-.24.536-.536zm0-2.136a.535.535 0 00-.536-.532H9.193a.532.532 0 00-.532.532c0 .296.236.536.532.536h9.612c.296 0 .536-.24.536-.536zm0-2.136a.535.535 0 00-.536-.532H9.193a.532.532 0 00-.532.532c0 .296.236.536.532.536h9.612c.296 0 .536-.24.536-.536zm10.592.072c0-.532-.796-.532-.796 0 0 .528.796.528.796 0zm1.34 1.352c0-.528-.796-.528-.796 0 0 .532.796.532.796 0zm.016-1.484a.303.303 0 00-.076-.192.354.354 0 00-.192-.076.322.322 0 00-.192.076l-1.62 1.62a.276.276 0 00-.072.192c0 .072.028.132.072.188.044.048.12.076.192.076a.29.29 0 00.192-.076l1.62-1.62a.277.277 0 00.076-.188zm1.28-8.72c0-.532-.796-.532-.796 0 0 .528.796.528.796 0zm1.356 1.352c0-.528-.796-.528-.796 0 0 .532.796.532.796 0zm-.28 4.86v-2.208c.012-.148-.104-.248-.236-.248H23.35v-1.724h7.424a.234.234 0 00.236-.236V9.189a.234.234 0 00-.236-.236l-7.424.004v-.972c0-.132-.104-.236-.236-.236s-.236.1-.236.236V21.49c0 .132.104.236.236.236s.236-.104.236-.236v-1.016h4.772a.234.234 0 00.236-.236V18.03a.234.234 0 00-.236-.236H23.35v-1.74h10.06c.132 0 .236-.1.236-.236zm.28-6.348a.302.302 0 00-.076-.188.303.303 0 00-.192-.076.28.28 0 00-.188.076l-1.62 1.62a.262.262 0 00-.076.192.28.28 0 00.076.188.277.277 0 00.188.076.312.312 0 00.192-.076l1.62-1.62a.279.279 0 00.076-.192zm1.296 4.596c0-.528-.796-.528-.796 0 0 .532.796.532.796 0zm1.356 1.356c0-.528-.796-.528-.796 0 0 .532.796.532.796 0zm-.076-1.296c.028-.06.06-.116.06-.192a.322.322 0 00-.076-.192.276.276 0 00-.192-.072.297.297 0 00-.188.072l-1.62 1.62a.402.402 0 00-.06.192c0 .076.028.132.072.192.044.044.12.076.192.076a.312.312 0 00.192-.076l1.62-1.62zM2.013 27.017h36.248v-25H2.013v25z"></path><mask id="result_svg__b" fill="#fff"><use xlink:href="#result_svg__a"></use></mask><path fill="#CCD8DD" d="M25.941 32.729h1.252v-4.844h-1.252zm-13.748 0h1.248v-4.844h-1.248z" mask="url(#result_svg__b)"></path><path fill="#000" d="M11.876 32.348h1.248v-4.844h-1.248v4.844zm2.5 0h10v-4.844h-10v4.844zm11.248 0h1.252v-4.844h-1.252v4.844zM1.252 26.256H37.5v-25H1.252v25zM38.752.952v25.604a.947.947 0 01-.948.948h-9.68v4.844h7.502a.626.626 0 110 1.252h-32.5a.626.626 0 110-1.252h7.498v-4.844H.948A.947.947 0 010 26.556V.952C0 .428.424.004.948.004h36.856c.524 0 .948.424.948.948z" mask="url(#result_svg__b)"></path><path fill="#000" d="M35.8 13.172c0 .076-.032.132-.06.192l-1.62 1.62a.312.312 0 01-.192.076.287.287 0 01-.192-.076.308.308 0 01-.072-.192c0-.072.028-.132.06-.192l1.62-1.62a.297.297 0 01.188-.072c.076 0 .148.028.192.072.044.06.076.12.076.192m-.78 1.488c0-.528.796-.528.796 0 0 .532-.796.532-.796 0m-1.356-1.356c0-.528.796-.528.796 0 0 .532-.796.532-.796 0m-.576-4.784a.302.302 0 01.076.188.279.279 0 01-.076.192l-1.62 1.62a.312.312 0 01-.192.076.277.277 0 01-.188-.076.28.28 0 01-.076-.188c0-.076.028-.148.076-.192l1.62-1.62a.28.28 0 01.188-.076c.076 0 .136.032.192.076" mask="url(#result_svg__b)"></path><path fill="#000" d="M23.06 19.228l.456-1.724h-.928v1.724h.472zm0-8.852l.456-1.724h-.928v1.724h.472zm.012 4.432l.456-1.724h-.94v1.724h.484zm1.312 4.42l.456-1.724h-.808l-.456 1.724h.808zm0-4.42l.456-1.724h-.808l-.456 1.724h.808zm0-4.42l.456-1.72h-.808l-.456 1.72h.808zm1.312 8.84l.456-1.724h-.812l-.456 1.724h.812zm0-4.42l.456-1.724h-.812l-.456 1.724h.812zm0-4.42l.456-1.724-.812.004-.456 1.72h.812zm1.428 8.84v-1.724h-.456l-.456 1.724h.912zm-.104-4.42l.456-1.724h-.824l-.44 1.724h.808zm0-4.42l.456-1.724-.808.004-.456 1.72h.808zm1.312 4.42l.456-1.724h-.812l-.456 1.724h.812zm0-4.432l.456-1.724h-.812l-.456 1.724h.812zm1.428.012v-1.72h-.472l-.456 1.72h.928zm-.116 4.42l.456-1.724h-.812l-.456 1.724h.812zm1.308 0l.456-1.724H30.6l-.456 1.724h.808zm1.46 0v-1.724h-.488l-.456 1.724h.944zm.472-1.96v2.208a.231.231 0 01-.236.236h-10.06v1.74h4.772c.132 0 .236.104.236.236v2.208a.234.234 0 01-.236.236h-4.772v1.016c0 .132-.104.236-.236.236s-.236-.104-.236-.236V7.224c0-.136.104-.236.236-.236s.236.104.236.236v.972l7.424-.004c.132 0 .236.104.236.236v2.212a.234.234 0 01-.236.236h-7.424V12.6h10.06c.132 0 .248.1.236.248zm-.516-2.652c0-.528.796-.528.796 0 0 .532-.796.532-.796 0m-1.356-1.352c0-.532.796-.532.796 0 0 .528-.796.528-.796 0" mask="url(#result_svg__b)"></path><path fill="#000" d="M30.452 17.372a.303.303 0 01.076.192.277.277 0 01-.076.188l-1.62 1.62a.29.29 0 01-.192.076.269.269 0 01-.192-.076.297.297 0 01-.072-.188c0-.076.028-.148.072-.192l1.62-1.62a.322.322 0 01.192-.076c.06 0 .132.032.192.076m-.736 1.676c0-.528.796-.528.796 0 0 .532-.796.532-.796 0m-1.34-1.352c0-.532.796-.532.796 0 0 .528-.796.528-.796 0m-10.332-.604a.535.535 0 110 1.068H8.432a.533.533 0 01-.532-.536c0-.292.236-.532.532-.532h9.612zm0 2.136a.535.535 0 110 1.068H8.432a.533.533 0 01-.532-.536c0-.292.236-.532.532-.532h9.612zm0 2.136a.535.535 0 110 1.068H8.432a.533.533 0 01-.532-.536c0-.292.236-.532.532-.532h9.612zm-3.028-8.348l-2.952-2.68H8.076a4.17 4.17 0 005.64 3.48 4.169 4.169 0 001.3-.8zm1.364-2.68h-3.072l2.268 2.064a4.175 4.175 0 00.804-2.064zM12.644 9.5h3.736a4.19 4.19 0 00-3.736-3.732V9.5zm3.124-3.12a5.01 5.01 0 010 7.08 5.01 5.01 0 01-7.08 0A5.005 5.005 0 017.22 9.92a.42.42 0 01.416-.42h4.172V5.328a.42.42 0 01.42-.416c1.328 0 2.6.528 3.54 1.468z" mask="url(#result_svg__b)"></path><path fill="#000" d="M10.14 7.832V4.94a3.337 3.337 0 00-2.892 2.892h2.892zm.836.416v.004a.406.406 0 01-.124.292.408.408 0 01-.296.124H6.804a.415.415 0 01-.416-.416c0-1.108.44-2.168 1.22-2.952a4.185 4.185 0 012.952-1.22.415.415 0 01.416.416v3.752zM6.832 19.68v.164a.455.455 0 01-.456.452h-.16a.454.454 0 01-.452-.452v-.164c0-.248.204-.452.452-.452h.16c.252 0 .456.204.456.452m-.536-2.588a.535.535 0 110 1.068.535.535 0 010-1.068m0 4.272a.535.535 0 110 1.068.535.535 0 010-1.068" mask="url(#result_svg__b)"></path><path fill="#231F20" d="M31.41 8.495c-.167 0-.348.109-.348.349 0 .238.18.346.348.346.168 0 .348-.108.348-.346 0-.24-.18-.35-.348-.35m0 .796c-.223 0-.448-.153-.448-.446 0-.295.225-.45.448-.45s.448.155.448.45c0 .293-.225.446-.448.446m1.356.56c-.168 0-.348.108-.348.346 0 .24.18.35.348.35.168 0 .348-.11.348-.35 0-.238-.18-.346-.348-.346m0 .795a.434.434 0 01-.448-.45c0-.292.225-.445.448-.445s.448.153.448.446c0 .295-.225.45-.448.45m.13-2.152a.234.234 0 00-.156.064l-1.617 1.618a.213.213 0 00-.061.156c0 .056.02.104.064.156a.229.229 0 00.15.058c.06 0 .105-.024.162-.066l1.615-1.615a.234.234 0 00.061-.157.25.25 0 00-.065-.157.25.25 0 00-.153-.057m-1.62 2.152a.329.329 0 01-.223-.09.335.335 0 01-.091-.224c0-.09.034-.176.092-.23l1.618-1.617a.337.337 0 01.224-.091c.1 0 .172.046.223.087a.36.36 0 01.095.227.337.337 0 01-.09.228l-1.62 1.62a.374.374 0 01-.228.09m2.786 2.312c-.168 0-.348.108-.348.346 0 .24.18.349.348.349.168 0 .348-.11.348-.349 0-.238-.18-.346-.348-.346m0 .795a.434.434 0 01-.448-.449c0-.293.225-.446.448-.446.222 0 .448.153.448.446a.434.434 0 01-.448.449m1.356.561c-.168 0-.348.108-.348.346 0 .24.18.35.348.35.168 0 .348-.11.348-.35 0-.238-.18-.346-.348-.346m0 .795a.435.435 0 01-.448-.45c0-.292.226-.445.448-.445.223 0 .448.153.448.446 0 .295-.225.45-.448.45m-1.653-.48a.346.346 0 00-.05.162.26.26 0 00.061.162c.031.03.096.056.152.056.06 0 .105-.024.163-.066l1.614-1.623a.335.335 0 00.045-.149c0-.05-.019-.098-.067-.162a.227.227 0 00-.151-.052.251.251 0 00-.157.061l-1.61 1.611zm.163.48a.34.34 0 01-.227-.09.363.363 0 01-.087-.228c0-.085.033-.153.066-.216l.009-.012 1.62-1.62a.349.349 0 01.223-.086.32.32 0 01.227.087.37.37 0 01.09.227.425.425 0 01-.054.192l-.02.036-1.62 1.62a.367.367 0 01-.227.09zm-5.154 2.237c-.168 0-.348.109-.348.349 0 .238.18.346.348.346.168 0 .348-.108.348-.346 0-.24-.18-.35-.348-.35m0 .796c-.223 0-.448-.153-.448-.446 0-.295.225-.45.448-.45s.448.155.448.45c0 .293-.225.446-.448.446m1.34.56c-.168 0-.348.109-.348.346 0 .24.18.349.348.349.168 0 .348-.11.348-.35 0-.236-.18-.345-.348-.345m0 .795a.434.434 0 01-.448-.45c0-.292.225-.445.448-.445s.448.153.448.446a.434.434 0 01-.448.449m.146-2.151c-.05 0-.098.02-.162.066l-1.614 1.616a.221.221 0 00-.058.156c0 .054.019.103.062.157.03.033.092.057.152.057.058 0 .103-.018.16-.065l1.617-1.616a.227.227 0 00.06-.153c0-.053-.017-.1-.06-.156a.306.306 0 00-.157-.062m-1.62 2.152a.315.315 0 01-.229-.092.341.341 0 01-.085-.222c0-.088.032-.173.087-.228l1.62-1.62a.375.375 0 01.227-.09c.067 0 .148.031.222.086l.01.01c.036.046.086.12.086.222a.331.331 0 01-.09.224l-1.62 1.62a.35.35 0 01-.228.09m2.893-4.74h.83v-1.624h-.4l-.43 1.624zm.93.1h-1.06l.482-1.824h.577v1.824zm-9.825-.1h.396l.43-1.624h-.826v1.624zm.472.1h-.572v-1.824h1.055l-.483 1.824zm-.472 4.32h.383l.43-1.624h-.813v1.624zm.46.1h-.56v-1.824h1.043l-.483 1.824zm3.179-.1h.797v-1.624h-.367l-.43 1.624zm.897.1h-1.027l.482-1.824h.545v1.824zm-2.225-.1h.708l.43-1.624h-.708l-.43 1.624zm.786.1h-.916l.482-1.824h.916l-.482 1.824zm-3.097-8.952h.383l.43-1.624h-.813v1.624zm.46.1h-.56V8.602h1.043l-.483 1.824zm4.487-.1h.708l.43-1.624h-.708l-.43 1.624zm.786.1h-.916l.482-1.824h.916l-.482 1.824zm-2.094-.088h.705l.429-1.624-.705.004-.429 1.62zm.782.1h-.912l.483-1.82.911-.005-.482 1.825zm1.838 4.32h.708l.43-1.624h-.708l-.43 1.624zm.786.1h-.916l.482-1.824h.916l-.482 1.824zm-2.098-.1h.708l.43-1.624h-.708l-.43 1.624zm.786.1h-.916l.482-1.824h.916l-.482 1.824zm-2.095-.1h.706l.43-1.624h-.721l-.415 1.624zm.783.1h-.911l.465-1.824h.928l-.482 1.824zm-2.11-.1h.708l.43-1.624h-.708l-.43 1.624zm.786.1h-.916l.482-1.824h.916l-.482 1.824z" mask="url(#result_svg__b)"></path><path fill="#231F20" d="M22.352 7.038a.182.182 0 00-.186.186v13.504c0 .104.082.186.186.186s.186-.082.186-.186v-1.066h4.822a.184.184 0 00.186-.186v-2.208a.184.184 0 00-.186-.186h-4.822v-1.84h10.11c.106 0 .186-.08.186-.186v-2.208a.172.172 0 00-.044-.138.19.19 0 00-.142-.06h-10.11v-1.824h7.474a.184.184 0 00.186-.186V8.428a.184.184 0 00-.186-.186l-7.474.004V7.224a.184.184 0 00-.186-.186m0 13.976a.283.283 0 01-.286-.286V7.224c0-.16.126-.286.286-.286.16 0 .286.126.286.286v.922l7.374-.004c.16 0 .286.126.286.286v2.212c0 .16-.126.286-.286.286h-7.374v1.624h10.01a.29.29 0 01.216.092c.052.056.076.13.07.21v2.204c0 .16-.126.286-.286.286h-10.01v1.64h4.722c.16 0 .286.126.286.286v2.208c0 .16-.126.286-.286.286h-4.722v.966c0 .16-.126.286-.286.286" mask="url(#result_svg__b)"></path></g></g></svg>