<svg viewBox="0 0 100 100" xmlns="http://www.w3.org/2000/svg"><g fill="none"><path d="M34.133 78.201V54.914h2.025c1.119 0 2.025.906 2.025 2.025v20.25a2.025 2.025 0 0 1-2.025 2.025h-2.025V78.2Z" fill="#E8A51F"/><path d="M32.116 57.254v20.152a10.103 10.103 0 0 1-7.463-15.592c.145-.121.254-.28.315-.458a10.132 10.132 0 0 1 7.148-4.102Z" fill="#F9CE62"/><path d="M26.866 56.339c-.733.426-1.42.93-2.048 1.5V49.64a1.013 1.013 0 0 1 1.74-.705.96.96 0 0 1 .285.705v6.713l.023-.015Z" fill="#FDF0D0"/><path d="M74.828 38.331a26.332 26.332 0 0 0-46.845 0 1.013 1.013 0 0 1-1.86-.127.998.998 0 0 1 .053-.803 28.372 28.372 0 0 1 50.467 0c.127.25.144.54.045.803a1.02 1.02 0 0 1-.57.6c-.487.206-1.051 0-1.29-.473Z" fill="#F9CE62"/><path d="M75.443 49.641a1.013 1.013 0 0 1 1.74-.705.96.96 0 0 1 .285.705v8.183a11.865 11.865 0 0 0-2.025-1.5V49.64Z" fill="#FDF0D0"/><path d="M70.59 57.254a10.125 10.125 0 0 1 0 20.152V57.254Z" fill="#F9CE62"/><path d="M68.566 55.926v23.288H66.54a2.025 2.025 0 0 1-2.025-2.025v-20.25a2.025 2.025 0 0 1 2.025-2.025h2.025v1.012Z" fill="#E8A51F"/><path d="M69.496 78.224v-.053a12.135 12.135 0 0 0 9.112-18.802v-10.5a3 3 0 0 0-2.025-2.858v-6.345a3 3 0 0 0 .75-3.652 30.397 30.397 0 0 0-54.075 0 3 3 0 0 0 .75 3.652v6.345a3.045 3.045 0 0 0-2.025 2.85v10.5a12.135 12.135 0 0 0 9.038 18.81v.053c0 1.118.907 2.025 2.025 2.025h2.025a4.05 4.05 0 0 0 4.05-4.05v-20.25a4.05 4.05 0 0 0-4.05-4.05h-2.025a2.025 2.025 0 0 0-2.025 2.025v.082a12.067 12.067 0 0 0-3 .653V48.86a3 3 0 0 0-2.025-2.857V40.43a3 3 0 0 0 2.677-1.642 24.75 24.75 0 0 1 1.98-3.21c4.418-7.073 12.113-10.02 19.605-10.02 7.493 0 14.07 2.527 19.643 10.02a24.285 24.285 0 0 1 1.98 3.21 3.05 3.05 0 0 0 2.677 1.642v5.58a3.045 3.045 0 0 0-2.025 2.85v5.768a12.067 12.067 0 0 0-3-.653v-.052a2.025 2.025 0 0 0-2.025-2.025h-2.025a4.05 4.05 0 0 0-4.05 4.05v20.25a4.05 4.05 0 0 0 4.05 4.05h2.025a2.025 2.025 0 0 0 1.988-2.025Zm-36.45-1.013v-23.25h2.025c1.118 0 2.025.907 2.025 2.025v20.25a2.025 2.025 0 0 1-2.025 2.025h-2.025v-1.05Zm-2.025-21.21v20.145a10.11 10.11 0 0 1-7.5-15.592.983.983 0 0 0 .322-.458 10.087 10.087 0 0 1 7.148-4.095h.03Zm-5.04-.45c-.733.427-1.42.93-2.048 1.5v-8.19a1.012 1.012 0 1 1 2.025 0v6.6a.397.397 0 0 0 0 .09h.023Zm47.7-17.692a26.332 26.332 0 0 0-46.845 0 1.043 1.043 0 0 1-.953.555 1.02 1.02 0 0 1-.892-.675.997.997 0 0 1 .045-.803 28.372 28.372 0 0 1 50.475 0c.127.25.143.54.045.803-.1.27-.305.487-.57.6a.998.998 0 0 1-1.305-.48Zm.877 11.002a1.012 1.012 0 1 1 2.025 0v8.183a11.865 11.865 0 0 0-2.025-1.5V48.86Zm-5.062 7.14a10.125 10.125 0 0 1 0 20.145V56.001Zm-2.025-1.065v23.288h-2.025a2.025 2.025 0 0 1-2.025-2.025v-20.25c0-1.119.907-2.025 2.025-2.025h2.025v1.012Z" fill="#000"/></g></svg>