<svg viewBox="0 0 100 100" xmlns="http://www.w3.org/2000/svg"><g fill="none" fill-rule="evenodd"><path d="M49.327 21.04c-7.004-.24-14.324 3.513-17.605 9.99-.296.584-.082 1.304.476 1.612.558.306 1.251.082 1.546-.502 2.874-5.671 9.368-8.924 15.5-8.713 8.88.305 17.383 7.794 17.066 17.057-.195 5.69-3.976 10.28-6.503 12.76C52.503 60.412 48.986 65.2 47.02 69.26c-2.222 4.593-5.05 8.815-8.32 8.703-4.415-.151-8.493-2.921-8.335-7.527.022-.659-.47-1.21-1.103-1.233-.63-.02-1.161.495-1.184 1.154-.203 5.922 4.864 9.798 10.54 9.992 4.195.145 7.814-4.583 10.445-10.018 1.963-4.056 5.278-8.447 12.311-15.35 2.84-2.787 7-7.916 7.223-14.418.364-10.58-9.13-19.174-19.269-19.523" fill="#E8A51F" fill-rule="nonzero"/><path d="M33.656 58.864c-.64-.156-.656-.362-1.145.079-1.044.94-.948 2.127-.996 3.505-.097 2.847 1.06 4.264 4.01 4.365 3.666.126 5.06-4.93 5.504-6.102.583-1.544 2.426-2.8 2.937-3.228 6.547-.869 10.554-4.63 10.742-10.112.2-5.81-4.539-10.706-10.562-10.913-1.378-.048-1.335.137-2.612.57 1.06-3.51 3.238-5.57 7.198-5.434 4.685.16 7.605 2.374 7.986 7.062.086 1.059.962 2.095 2.215 1.763.648-.172.267-.042.289-.688.2-5.812-4.539-10.708-10.562-10.915-6.024-.206-11.086 4.354-11.286 10.164a10.333 10.333 0 0 0 2.325 6.864c.23.284.569.437.915.45.276.01.556-.072.79-.248a1.15 1.15 0 0 0 .277-.304h.019c1.17.04 3.182.766 3.144 1.895-.039 1.13-.166 3.43-1.336 3.39-.671-.023-2.76 1.22-2.784 1.867-.021.646-.674 1.731 1.23 2.03 3.63.567 5.892-3.444 6.054-5.358.58-6.893-5.63-6.952-6.412-7.017-.25-.546-.536-1.971-.528-2.058 0 0 1.651-.829 3.63-.482 4.831.844 8.082 5.685 6.81 9.59-1.417 4.345-3.548 4.692-8.221 6.137-2.705.836-4.481 3.278-5.01 4.393-1.278 2.693-1.932 4.22-2.814 4.315-1.296.139-2.129-1.755-.99-2.797.556-.51.812-2.383-.817-2.783" fill="#F9CE62" fill-rule="nonzero"/><path d="M32.434 29.492a1.338 1.338 0 1 0 2.367 1.249c3.351-6.353 10.151-10.3 17.325-10.053 10.384.357 18.543 9.094 18.186 19.479-.219 6.378-3.78 11.026-6.73 13.8-8.532 8.025-11.69 13.55-13.983 18.098-2.591 5.143-5.711 7.58-9.535 7.45-5.163-.18-9.22-4.522-9.042-9.686a1.338 1.338 0 1 0-2.675-.092c-.229 6.639 4.987 12.224 11.625 12.452 4.907.168 8.95-2.832 12.018-8.92 2.29-4.543 5.212-9.626 13.426-17.352 3.316-3.119 7.322-8.368 7.571-15.658.408-11.86-8.91-21.84-20.77-22.247-8.191-.28-15.958 4.226-19.783 11.48Zm6.97 8.944a12.05 12.05 0 0 0 2.552 7.836 1.339 1.339 0 0 0 1.879.229 1.33 1.33 0 0 0 .304-.347h.021a2.343 2.343 0 0 1 2.26 2.42 2.343 2.343 0 0 1-2.42 2.26 1.338 1.338 0 0 0-.092 2.676 5.024 5.024 0 0 0 5.188-4.843 5.025 5.025 0 0 0-4.844-5.189 5.01 5.01 0 0 0-.913.055 9.36 9.36 0 0 1-1.253-4.239 9.327 9.327 0 0 1 4.692-1.074c5.163.177 9.219 4.522 9.043 9.684-.173 5.015-3.778 8.313-9.892 9.052a1.33 1.33 0 0 0-.641.256c-.107.081-2.644 2.002-3.742 5.008-1.166 3.189-2.437 3.559-3.415 3.526a3.23 3.23 0 0 1-3.112-3.333 3.21 3.21 0 0 1 1.022-2.248 1.339 1.339 0 0 0-1.827-1.956 5.857 5.857 0 0 0-1.87 4.112 5.908 5.908 0 0 0 5.696 6.1c4.04.139 5.53-3.941 6.02-5.283.645-1.764 2.019-3.086 2.582-3.575 7.217-1.004 11.638-5.305 11.853-11.567.228-6.638-4.987-12.224-11.625-12.45a11.974 11.974 0 0 0-4.421.676c1.172-4.011 4.95-6.885 9.314-6.737 5.163.179 9.22 4.522 9.042 9.686a1.34 1.34 0 0 0 2.675.092c.228-6.638-4.986-12.225-11.624-12.453-6.638-.227-12.225 4.988-12.453 11.626Z" fill="#231F20"/><path d="M32.434 29.492a1.338 1.338 0 1 0 2.367 1.249c3.351-6.353 10.151-10.3 17.325-10.053 10.384.357 18.543 9.094 18.186 19.479-.219 6.378-3.78 11.026-6.73 13.8-8.532 8.025-11.69 13.55-13.983 18.098-2.591 5.143-5.711 7.58-9.535 7.45-5.163-.18-9.22-4.522-9.042-9.686a1.338 1.338 0 1 0-2.675-.092c-.229 6.639 4.987 12.224 11.625 12.452 4.907.168 8.95-2.832 12.018-8.92 2.29-4.543 5.212-9.626 13.426-17.352 3.316-3.119 7.322-8.368 7.571-15.658.408-11.86-8.91-21.84-20.77-22.247-8.191-.28-15.958 4.226-19.783 11.48Zm6.97 8.944a12.05 12.05 0 0 0 2.552 7.836 1.339 1.339 0 0 0 1.879.229 1.33 1.33 0 0 0 .304-.347h.021a2.343 2.343 0 0 1 2.26 2.42 2.343 2.343 0 0 1-2.42 2.26 1.338 1.338 0 0 0-.092 2.676 5.024 5.024 0 0 0 5.188-4.843 5.025 5.025 0 0 0-4.844-5.189 5.01 5.01 0 0 0-.913.055 9.36 9.36 0 0 1-1.253-4.239 9.327 9.327 0 0 1 4.692-1.074c5.163.177 9.219 4.522 9.043 9.684-.173 5.015-3.778 8.313-9.892 9.052a1.33 1.33 0 0 0-.641.256c-.107.081-2.644 2.002-3.742 5.008-1.166 3.189-2.437 3.559-3.415 3.526a3.23 3.23 0 0 1-3.112-3.333 3.21 3.21 0 0 1 1.022-2.248 1.339 1.339 0 0 0-1.827-1.956 5.857 5.857 0 0 0-1.87 4.112 5.908 5.908 0 0 0 5.696 6.1c4.04.139 5.53-3.941 6.02-5.283.645-1.764 2.019-3.086 2.582-3.575 7.217-1.004 11.638-5.305 11.853-11.567.228-6.638-4.987-12.224-11.625-12.45a11.974 11.974 0 0 0-4.421.676c1.172-4.011 4.95-6.885 9.314-6.737 5.163.179 9.22 4.522 9.042 9.686a1.34 1.34 0 0 0 2.675.092c.228-6.638-4.986-12.225-11.624-12.453-6.638-.227-12.225 4.988-12.453 11.626Z" stroke="#231F20" stroke-linecap="round"/></g></svg>