<svg xmlns="http://www.w3.org/2000/svg" xmlns:xlink="http://www.w3.org/1999/xlink" width="315" height="110"><defs><path id="a" d="M0 109.2h314.509V.277H0z"/></defs><g fill="none" fill-rule="evenodd"><path fill="#241F20" d="M.473 95.253H314.51v-44.67H.473z"/><path fill="#58595B" d="M0 46.291h314.509V.6H0z"/><g transform="translate(0 .322)"><path fill="#FFF" d="M284.97 16.64h-6.734l-.678 4.535c.408-.055.787-.11 1.438-.11 1.358 0 2.716.3 3.802.951 1.385.787 2.525 2.307 2.525 4.535 0 3.448-2.743 6.027-6.57 6.027-1.928 0-3.558-.544-4.4-1.087l.598-1.817c.733.433 2.173.976 3.775.976 2.252 0 4.18-1.466 4.18-3.83-.026-2.278-1.547-3.908-5.078-3.908-1.003 0-1.79.11-2.443.19l1.141-8.472h8.444v2.01zm5.537 6.896c0 4.59 1.413 7.196 3.584 7.196 2.444 0 3.612-2.85 3.612-7.358 0-4.345-1.114-7.196-3.584-7.196-2.092 0-3.612 2.552-3.612 7.358m9.584-.27c0 6-2.226 9.311-6.136 9.311-3.448 0-5.783-3.23-5.838-9.069 0-5.918 2.552-9.175 6.136-9.175 3.72 0 5.838 3.312 5.838 8.933"/><mask id="b" fill="#fff"><use xlink:href="#a"/></mask><path fill="#58595B" d="M263 12h49v26h-49z" mask="url(#b)"/><text fill="#FFF" font-family="OpenSans, Open Sans" font-size="26" mask="url(#b)">
                <tspan x="264.701" y="34.678">100</tspan>
            </text><path fill="#A7A9AC" d="M155.088 26.397h106.47v-2.8h-106.47z" mask="url(#b)"/><path fill="#00A3FF" d="M52.553 26.397h202v-2.8h-202z" mask="url(#b)"/><path fill="#008FFF" d="M257.774 34.941A3.774 3.774 0 0 1 254 31.168V18.733a3.774 3.774 0 0 1 7.549 0v12.435a3.774 3.774 0 0 1-3.775 3.773" mask="url(#b)"/><path fill="#E6E7E8" d="m26.613 17.382-5.422 4.445-3.154.292a.527.527 0 0 0-.472.525v4.012c0 .265.213.497.483.526l3.143.29 5.424 4.447-.002-14.537zm.009 15.916c-.307 0-.61-.108-.856-.315l-5.115-4.195-2.74-.252a1.898 1.898 0 0 1-1.707-1.88v-4.012c0-.964.728-1.771 1.694-1.88l2.753-.254 5.12-4.196c.39-.326.92-.402 1.383-.197.483.213.798.679.819 1.215l.001.027v14.58c0 .535-.301 1.006-.784 1.231a1.344 1.344 0 0 1-.568.128zm6.424-11.586c-.265-.585-.875-.718-1.284-.266l-.06.053c-.286.318-.367.878-.184 1.301a4.65 4.65 0 0 1 0 3.615c-.183.425-.102.983.184 1.302l.06.052c.386.45 1.02.345 1.284-.265.367-.851.59-1.86.59-2.923a7.45 7.45 0 0 0-.59-2.869m3.433-2.63c-.284-.532-.875-.612-1.242-.186l-.04.053c-.306.372-.367.983-.124 1.435.651 1.195 1.02 2.684 1.02 4.252 0 1.593-.388 3.054-1.02 4.25-.243.45-.182 1.064.123 1.434l.041.053c.367.425.956.347 1.242-.185.855-1.568 1.344-3.482 1.344-5.552 0-2.074-.489-3.988-1.344-5.554" mask="url(#b)"/><path fill="#808285" d="M39.949 16.503c-.305-.504-.856-.584-1.222-.16l-.062.054c-.325.37-.365 1.01-.1 1.461 1.098 1.886 1.73 4.224 1.73 6.748 0 2.525-.651 4.888-1.73 6.748-.265.453-.225 1.091.1 1.462l.062.053c.366.426.917.346 1.222-.16 1.323-2.258 2.097-5.076 2.097-8.13 0-3-.774-5.818-2.097-8.076" mask="url(#b)"/><path fill="#E6E7E8" d="m245.53 66.23-5.422 4.444-3.154.29a.527.527 0 0 0-.472.525v4.014c0 .263.213.495.485.525l3.141.29 5.424 4.447-.001-14.536zm.009 15.913c-.307 0-.609-.108-.855-.315l-5.115-4.194-2.74-.252a1.896 1.896 0 0 1-1.707-1.88V71.49c0-.963.728-1.771 1.694-1.879l2.753-.253 5.119-4.197c.39-.325.92-.402 1.383-.198.483.213.798.68.82 1.215v14.608c0 .535-.3 1.007-.784 1.23a1.344 1.344 0 0 1-.568.128zm6.424-11.585c-.264-.585-.875-.718-1.284-.265l-.06.052c-.285.318-.367.878-.183 1.3a4.65 4.65 0 0 1 0 3.615c-.184.426-.102.985.183 1.302l.06.052c.388.452 1.02.346 1.284-.264a7.45 7.45 0 0 0 .59-2.924 7.45 7.45 0 0 0-.59-2.868m3.434-2.631c-.286-.53-.875-.612-1.243-.186l-.04.053c-.306.373-.368.983-.123 1.435.651 1.196 1.018 2.686 1.018 4.252 0 1.593-.386 3.055-1.018 4.25-.245.453-.183 1.065.122 1.436l.04.051c.369.426.958.347 1.244-.184.854-1.569 1.344-3.482 1.344-5.553 0-2.073-.49-3.986-1.344-5.554" mask="url(#b)"/><path fill="#808285" d="M258.866 65.349c-.305-.504-.854-.584-1.222-.16l-.06.053c-.326.371-.367 1.011-.102 1.462 1.099 1.886 1.73 4.224 1.73 6.748s-.651 4.889-1.73 6.748c-.265.452-.224 1.09.102 1.462l.06.053c.368.425.917.347 1.222-.16 1.323-2.258 2.099-5.076 2.099-8.131 0-3-.776-5.817-2.099-8.075" mask="url(#b)"/><path stroke="#FF4630" stroke-width="4.2" d="M281.649 72.02c0-19.374-15.705-35.08-35.08-35.08-19.374 0-35.08 15.706-35.08 35.08s15.706 35.08 35.08 35.08c19.375 0 35.08-15.706 35.08-35.08z" mask="url(#b)"/></g></g></svg>