<svg xmlns="http://www.w3.org/2000/svg" width="283" height="214"><g fill="none" fill-rule="evenodd"><rect width="75.593" height="42.14" x="60.543" y="171.409" fill="#F1F2F2" fill-rule="nonzero" rx="5.747"/><path fill="#A7A9AC" fill-rule="nonzero" d="M130.389 213.836H66.29a6.048 6.048 0 0 1-6.041-6.034v-30.646a6.048 6.048 0 0 1 6.041-6.034h64.099a6.041 6.041 0 0 1 6.034 6.034v30.646a6.041 6.041 0 0 1-6.034 6.034zM66.29 171.703a5.46 5.46 0 0 0-5.46 5.453v30.646a5.46 5.46 0 0 0 5.46 5.453h64.099a5.453 5.453 0 0 0 5.453-5.453v-30.646a5.453 5.453 0 0 0-5.453-5.453H66.29z"/><rect width="75.593" height="42.14" x="146.65" y="171.409" fill="#F1F2F2" fill-rule="nonzero" rx="5.747"/><path fill="#A7A9AC" fill-rule="nonzero" d="M216.496 213.836H152.39a6.041 6.041 0 0 1-6.034-6.034v-30.646a6.041 6.041 0 0 1 6.034-6.034h64.106a6.041 6.041 0 0 1 6.034 6.034v30.646a6.041 6.041 0 0 1-6.034 6.034zm-64.106-42.133a5.453 5.453 0 0 0-5.453 5.453v30.646a5.453 5.453 0 0 0 5.453 5.453h64.106a5.453 5.453 0 0 0 5.453-5.453v-30.646a5.453 5.453 0 0 0-5.453-5.453H152.39z"/><path fill="#231F20" fill-rule="nonzero" d="m183.029 185.36-3.129 3.066v-.063h-3.003a1.344 1.344 0 0 0-1.274 1.4v3.724a1.344 1.344 0 0 0 1.274 1.4h2.961l3.213 3.087a.413.413 0 0 0 .7-.294v-12.026a.42.42 0 0 0-.742-.294zm4.354 10.64a.567.567 0 0 1-.434-.924 6.069 6.069 0 0 0 1.239-3.416 6.391 6.391 0 0 0-1.4-3.556.567.567 0 0 1 .063-.798.574.574 0 0 1 .798.063 7.434 7.434 0 0 1 1.68 4.291 7.168 7.168 0 0 1-1.491 4.13.56.56 0 0 1-.455.21zm3.374 2.289a.567.567 0 0 1-.427-.938 9.625 9.625 0 0 0 1.911-5.537 8.134 8.134 0 0 0-1.981-5.712.567.567 0 0 1 .399-.965c.15 0 .294.06.399.167a9.184 9.184 0 0 1 2.31 6.559 10.654 10.654 0 0 1-2.198 6.23.56.56 0 0 1-.413.196zm3.465 2.114a.567.567 0 0 1-.357-1.008s2.352-2.009 2.52-7.224a12.236 12.236 0 0 0-2.758-8.4.567.567 0 0 1 0-.805.56.56 0 0 1 .798 0 13.139 13.139 0 0 1 3.073 9.212c-.189 5.775-2.835 7.973-2.947 8.064a.567.567 0 0 1-.329.161zM99.624 186.83l-3.164 3.066v-.063h-3.003a1.344 1.344 0 0 0-1.274 1.4v3.724a1.344 1.344 0 0 0 1.274 1.4h2.961l3.213 3.094a.413.413 0 0 0 .7-.301v-12.026a.42.42 0 0 0-.707-.294zm4.354 10.668a.56.56 0 0 1-.434-.924 6.062 6.062 0 0 0 1.239-3.409 6.391 6.391 0 0 0-1.4-3.563.56.56 0 0 1 .063-.791.567.567 0 0 1 .798.063 7.392 7.392 0 0 1 1.687 4.291 7.182 7.182 0 0 1-1.498 4.13.574.574 0 0 1-.455.203z"/><path fill="#000" fill-rule="nonzero" d="M117.404 200.116h4.074v1.057h-2.8v1.946h2.597v1.057h-2.597v3.024h-1.288zm7.056 1.414-1.246.63-.224-.98 1.659-.812h1.078v6.832h-1.267zm4.648 0-1.246.63-.224-.98 1.659-.812h1.078v6.832h-1.246zm73.661-1.414h4.074v1.057h-2.8v1.946h2.597v1.057h-2.597v3.024h-1.288zm7.056 1.414-1.246.63-.217-.98 1.652-.812h1.078v6.832h-1.246zm2.632 5.67v-.784l.805-.742c1.603-1.491 2.352-2.31 2.366-3.206a1.071 1.071 0 0 0-1.218-1.141 2.471 2.471 0 0 0-1.456.567l-.371-.91a3.311 3.311 0 0 1 2.1-.7 2.016 2.016 0 0 1 2.24 2.065c0 1.19-.861 2.156-2.044 3.255l-.595.518h2.8v1.078h-4.627z"/><rect width="220.297" height="150.703" x="31.241" fill="#0C1218" fill-rule="nonzero" rx="6.468"/><path fill="#C7CFC0" fill-rule="nonzero" d="M142.8 3.668a1.834 1.834 0 1 1-3.668 0 1.834 1.834 0 0 1 3.668 0z"/><path fill="#F9CE62" fill-rule="nonzero" d="M37.562 8.918H245.21v129.416H37.562z"/><path fill="#EFF0F1" fill-rule="nonzero" d="M.035 151.081c.28 1.932 2.247 3.451 4.62 3.451h273.469c2.373 0 4.347-1.519 4.62-3.451H.035z"/><path fill="#FAFAFA" fill-rule="nonzero" d="M0 146.692h282.779v4.389H0z"/><path fill="#D3D5D7" fill-rule="nonzero" d="m282.786 146.692-31.248-2.065H31.311L0 146.692zm-161.259 0a4.522 4.522 0 0 0 4.2 2.681h31.388a4.536 4.536 0 0 0 4.2-2.681h-39.788z"/><rect width="68.67" height="60.69" x="107.058" y="44.107" fill="#A7A9AC" fill-rule="nonzero" rx="4.683"/><path fill="#FFF" fill-rule="nonzero" d="m135.009 60.809-5.859 5.152v-.112h-5.565a2.373 2.373 0 0 0-2.373 2.373v6.251a2.373 2.373 0 0 0 2.373 2.373h5.474l5.957 5.187a.798.798 0 0 0 1.267-.504V61.306a.798.798 0 0 0-1.274-.497z"/><path stroke="#FFF" stroke-linecap="round" stroke-width="1.995" d="M142.744 64.855s2.856 3.045 2.856 6.587-2.534 6.3-2.534 6.3m6.09-16.352a13.916 13.916 0 0 1 3.969 10.304 16.1 16.1 0 0 1-3.801 9.877m6.076-24.059a20.244 20.244 0 0 1 5.404 14.77c-.336 9.373-5.068 12.838-5.068 12.838"/><path fill="#808285" fill-rule="nonzero" d="M115.562 93.961h55v1.554h-55z"/><path fill="#FFF" fill-rule="nonzero" d="M136.548 93.961h3.108v1.554h-3.108zm-7.063 0h3.108v1.554h-3.108zm10.598 0h3.108v1.554h-3.108zm-21.189 0h3.108v1.554h-3.108zm7.063 0h3.108v1.554h-3.108zm-10.36 0h2.933v1.554h-2.933zm6.825 0h3.108v1.554h-3.108zm10.598 0h3.108v1.554h-3.108z"/><path fill="#FFF" fill-rule="nonzero" d="M136.548 93.961h3.108v1.554h-3.108zm-7.063 0h3.108v1.554h-3.108zm10.598 0h3.108v1.554h-3.108zm-21.189 0h3.108v1.554h-3.108zm7.063 0h3.108v1.554h-3.108zm-10.36 0h2.933v1.554h-2.933zm6.825 0h3.108v1.554h-3.108zm10.598 0h3.108v1.554h-3.108z"/><path fill="#808285" fill-rule="nonzero" d="M168.335 93.961h2v1.554h-2zm-7.063 0h3.108v1.554h-3.108zm3.528 0h3.108v1.554H164.8zm-17.654 0h3.108v1.554h-3.108zm3.528 0h3.108v1.554h-3.108zm3.535 0h3.108v1.554h-3.108zm3.528 0h3.108v1.554h-3.108z"/><path fill="#FFF" fill-rule="nonzero" d="M143.635 93.961h2.958v1.554h-2.958zm3.373 0h3.043v1.554h-3.043zm3.528 0h3.246v1.554h-3.246zm3.673 0h3.108v1.554h-3.108zm3.528 0h2.873v1.554h-2.873zm3.263 0h3.246v1.554H161zm3.673 0h3.108v1.554h-3.108zm3.528 0h2.873v1.554h-2.873z"/><g transform="translate(107 44)"><rect width="68.373" height="60.79" fill="#A7A9AC" fill-rule="nonzero" rx="6.69"/><path fill="#FFF" fill-rule="nonzero" d="m27.837 16.73-5.84 5.16v-.112h-5.542a2.363 2.363 0 0 0-2.355 2.37v6.268a2.363 2.363 0 0 0 2.355 2.37h5.458l5.924 5.195c.22.172.513.215.772.113a.791.791 0 0 0 .49-.61V17.226a.791.791 0 0 0-.49-.61.784.784 0 0 0-.772.112z"/><path stroke="#FFF" stroke-linecap="round" stroke-width="2.85" d="M35.545 20.782s2.858 3.043 2.858 6.59c0 3.549-2.523 6.346-2.523 6.346m6.043-16.407a13.985 13.985 0 0 1 3.952 10.321 16.238 16.238 0 0 1-3.785 9.894m6.05-24.106a20.405 20.405 0 0 1 5.38 14.801c-.334 9.389-5.039 12.852-5.039 12.852"/><path fill="#808285" fill-rule="nonzero" d="M7.478 49.936h55.73v1.557H7.478z"/><path fill="#FFF" fill-rule="nonzero" d="M28.297 49.936h3.095v1.557h-3.095zm-7.032 0h3.095v1.557h-3.095zm10.552 0h3.095v1.557h-3.095zm-21.028 0h3.095v1.557h-3.095zm6.963 0h3.095v1.557h-3.095zm-10.246 0h2.92v1.557h-2.92zm6.726 0h3.095v1.557h-3.095zm10.552 0h3.095v1.557h-3.095z"/><path fill="#808285" fill-rule="nonzero" d="M60.016 49.936h3.095v1.557h-3.095zm-7.032 0h3.095v1.557h-3.095zm3.519 0h3.095v1.557h-3.095zm-17.584 0h3.095v1.557h-3.095zm3.519 0h3.095v1.557h-3.095zm3.513 0h3.095v1.557h-3.095zm3.52 0h3.095v1.557h-3.095z"/><path fill="#FFF" fill-rule="nonzero" d="M49.408 49.936h3.095v1.557h-3.095zm-7.032 0h3.095v1.557h-3.095zm10.552 0h3.095v1.557h-3.095zm-14.065 0h3.095v1.557h-3.095zm-3.52 0h3.095v1.557h-3.095zm10.552 0h3.095v1.557h-3.095zm14.051 0h3.095v1.557h-3.095zm-3.519 0h3.095v1.557h-3.095z"/></g></g></svg>