<svg xmlns="http://www.w3.org/2000/svg" xmlns:xlink="http://www.w3.org/1999/xlink" viewBox="0 0 100 100"><defs><path id="a" d="M0 .16h19.74v46.323H0z"/><path id="c" d="M.325.46H20.84V42.6H.325z"/></defs><g fill="none" fill-rule="evenodd"><g transform="translate(18 39)"><path fill="#F9CE62" d="M9.815 31.372c.006.024.006.054.006.078a.428.428 0 0 1-.33.414l-1.23.276.012-.018a.428.428 0 0 1-.54-.287l-.522-1.903 2.238-.552.366 1.992z"/><path fill="#FDF0D0" d="M18.859 18.518a.373.373 0 0 1-.282.432l-2.196.444a.402.402 0 0 1-.276-.048.38.38 0 0 1-.156-.228L12.733 3.722l-.006-.018a.379.379 0 0 1 .048-.27.382.382 0 0 1 .234-.162l2.178-.474h.078c.168 0 .318.12.348.294l3.246 15.426z"/><path fill="#E8A51F" d="m8.408 22.288 1.122 6.114-2.43.6-2.454-8.622c.258.21.522.402.798.588a10.338 10.338 0 0 0 2.964 1.32"/><path fill="#F9CE62" d="M9.406 6.829a.953.953 0 0 0 .738-1.128.948.948 0 0 0-1.122-.733 5.505 5.505 0 0 0-4.098 3.661.94.94 0 0 0 .6 1.236.95.95 0 0 0 .732-.067.979.979 0 0 0 .468-.569 3.604 3.604 0 0 1 2.682-2.4zm4.734 12.587c.012.073.066.139.066.204a7.956 7.956 0 0 1-1.44.409 8.405 8.405 0 0 1-9.66-5.478L2.8 13.513a8.416 8.416 0 0 1 6.528-9.936 8.534 8.534 0 0 1 1.56-.15c-.006.174.006.354.036.521l3.216 15.468z"/><mask id="b" fill="#fff"><use xlink:href="#a"/></mask><path fill="#000" d="M17.774 18.203h-.002l-2.196.444a.542.542 0 0 1-.385-.066.53.53 0 0 1-.224-.327L11.75 2.859a.539.539 0 0 1 .06-.397.539.539 0 0 1 .327-.228l2.182-.476.11-.003c.246 0 .454.176.496.418l3.245 15.42a.529.529 0 0 1-.397.61zm-4.316.755-.096.037a8.258 8.258 0 0 1-1.467.415 8.487 8.487 0 0 1-1.741.18c-3.578 0-6.881-2.263-8.088-5.756l-.308-1.045C.805 8.163 3.786 3.627 8.4 2.664a8.702 8.702 0 0 1 1.59-.153h.156l-.005.155c-.006.165.006.334.034.49L13.39 18.62c.003.02.013.042.023.064.02.045.046.102.046.17v.104zM9.382 30.96c.008.032.008.074.008.105a.578.578 0 0 1-.444.56l-1.534.262a.578.578 0 0 1-.405-.398l-.563-2.051 2.542-.627.396 2.149zm-3.349-3.05L3.41 18.69l.37.3c.24.195.496.385.787.58a10.16 10.16 0 0 0 2.92 1.3l.09.024 1.165 6.347-2.708.668zm13.663-10.636v-.003L16.472 1.845A2.122 2.122 0 0 0 13.967.204l-2.13.45a2.033 2.033 0 0 0-.702.294l-.065.045-.075-.029a.747.747 0 0 0-.235-.055 10.177 10.177 0 0 0-8.313 3.506 10.167 10.167 0 0 0-2.222 8.738l.003.091c.076.33.181.706.31 1.087L5.49 31.889a2.184 2.184 0 0 0 2.1 1.587h.335l.031.11 1.534-.416.128-.05a2.167 2.167 0 0 0 1.359-2.412l-1.694-9.466h.857a10.113 10.113 0 0 0 4.474-1.087l.059-.03.061.023c.355.134.714.167 1.15.084l2.175-.457a2.117 2.117 0 0 0 1.637-2.501z" mask="url(#b)"/></g><path fill="#F9CE62" d="m74.301 55.111-.738 1.83.018.002a.43.43 0 0 1-.555.2l-1.183-.42a.418.418 0 0 1-.271-.527l.57-1.892 2.16.807z"/><path fill="#FDF0D0" d="M72.759 28.358a.362.362 0 0 1-.022.082l-4.976 14.957a.378.378 0 0 1-.181.209.338.338 0 0 1-.204.037c-.024-.003-.048-.006-.071-.015l-2.11-.704a.368.368 0 0 1-.23-.462l4.975-14.957a.363.363 0 0 1 .181-.214.396.396 0 0 1 .28-.017v.006l2.11.699a.388.388 0 0 1 .21.181.387.387 0 0 1 .037.198"/><path fill="#E8A51F" d="m78.875 44.92-3.394 8.304-2.345-.87 1.806-5.976-.018-.002a10.306 10.306 0 0 0 3.091-.97c.296-.152.587-.318.86-.485"/><path fill="#F9CE62" d="M79.408 35.29a.949.949 0 0 0 .219-.844 5.524 5.524 0 0 0-3.648-4.116.952.952 0 0 0-1.201.622.955.955 0 0 0 .621 1.202 3.612 3.612 0 0 1 2.387 2.694c.088.39.421.688.821.73l-.02.02c.31.037.613-.08.82-.308m-3.549-6.411c4.395 1.477 6.773 6.224 5.325 10.622l-.42 1.014a8.328 8.328 0 0 1-3.795 3.865 8.348 8.348 0 0 1-6.42.462 8.216 8.216 0 0 1-1.385-.614c.026-.07.075-.13.084-.201l4.976-14.957a2.25 2.25 0 0 0 .103-.52c.519.06 1.032.168 1.532.329"/><g transform="translate(62 24)"><mask id="d" fill="#fff"><use xlink:href="#c"/></mask><path fill="#000" d="m18.794 14.507-.004.01-.42 1.014a8.545 8.545 0 0 1-3.867 3.943 8.553 8.553 0 0 1-6.535.47 8.396 8.396 0 0 1-1.41-.625l-.114-.063.047-.122a.69.69 0 0 1 .043-.091c.015-.029.03-.058.032-.074L11.55 3.98c.049-.15.081-.312.095-.484l.013-.155.154.018c.535.062 1.06.174 1.56.335 4.46 1.499 6.891 6.35 5.423 10.812zm-5.967 14.546-2.614-.97 1.796-5.94.155-.277a10.192 10.192 0 0 0 3.045-.956c.28-.144.566-.306.849-.48l.39-.24-3.621 8.863zm-1.33 3.243-.097.19a.585.585 0 0 1-.748.27l-1.175-.417a.569.569 0 0 1-.384-.61c.004-.031.009-.072.023-.11l.613-2.036 2.454.917-.723 1.792.036.004zM5.048 18.43a.525.525 0 0 1-.482.351c-.02 0-.041-.002-.062-.004a.429.429 0 0 1-.108-.023l-2.105-.702a.517.517 0 0 1-.326-.648L6.944 2.443a.516.516 0 0 1 .253-.299.533.533 0 0 1 .396-.026l.122.038-.001.008 1.991.658c.132.05.232.136.294.253a.523.523 0 0 1 .054.286.49.49 0 0 1-.029.114L5.049 18.43zm6.197-16.773a.653.653 0 0 0-.242.028l-.075.02-.06-.051a1.985 1.985 0 0 0-.67-.375l-.121-.04.001-.006-1.99-.665A2.116 2.116 0 0 0 5.411 1.91L.434 16.867a2.119 2.119 0 0 0 1.336 2.677l2.117.7c.37.126.765.145 1.143.053l.063-.015.054.035c.724.468 1.498.843 2.3 1.113.658.223 1.351.377 2.06.46l.85.098-2.78 9.212a2.179 2.179 0 0 0 1.07 2.555l.122.064 1.51.562.339.04a2.182 2.182 0 0 0 2.262-1.336l6.975-16.919c.17-.343.32-.703.45-1.08l-.001-.022c1.022-3.018.57-6.36-1.204-8.975a10.178 10.178 0 0 0-7.853-4.431z" mask="url(#d)"/></g><path stroke="#000" stroke-linecap="round" stroke-width="1.8" d="M45 32.82c1.29-.667 2.596-1 3.918-1 1.323 0 2.683.333 4.082 1m-10-4.09c2.071-1.17 4.071-1.755 6-1.755 1.929 0 3.929.585 6 1.755m-15-3.91c2.776-1.88 5.776-2.82 9-2.82s6.224.94 9 2.82"/></g></svg>